<svg width="24" height="24" viewBox="0 0 24 24" fill="none" xmlns="http://www.w3.org/2000/svg">
<path fill-rule="evenodd" clip-rule="evenodd" d="M3.66675 3.75C3.25253 3.75 2.91675 4.08579 2.91675 4.5V17C2.91675 17.4142 3.25253 17.75 3.66675 17.75H9.50008C9.96421 17.75 10.4093 17.9344 10.7375 18.2626C11.0657 18.5908 11.2501 19.0359 11.2501 19.5C11.2501 19.7589 11.3812 19.9871 11.5807 20.1219C11.7004 20.2028 11.8448 20.25 12.0001 20.25C12.0519 20.25 12.1024 20.2448 12.1512 20.2348C12.2977 20.2048 12.4286 20.1321 12.5304 20.0303C12.6661 19.8946 12.7501 19.7071 12.7501 19.5C12.7501 19.0359 12.9345 18.5908 13.2627 18.2626C13.5908 17.9344 14.036 17.75 14.5001 17.75H20.3334C20.7476 17.75 21.0834 17.4142 21.0834 17V4.5C21.0834 4.08579 20.7476 3.75 20.3334 3.75H15.3334C14.2505 3.75 13.2119 4.18021 12.4461 4.94598C12.2816 5.11043 12.1327 5.28747 12.0001 5.47482C11.8675 5.28747 11.7186 5.11043 11.5541 4.94598C10.7883 4.18021 9.74971 3.75 8.66675 3.75H3.66675ZM11.2501 7.83333V16.7614C10.7315 16.43 10.1251 16.25 9.50008 16.25H4.41675V5.25H8.66675C9.35189 5.25 10.009 5.52217 10.4934 6.00664C10.9779 6.49111 11.2501 7.14819 11.2501 7.83333ZM14.5001 16.25C13.8751 16.25 13.2686 16.43 12.7501 16.7614V7.83333C12.7501 7.14819 13.0223 6.49111 13.5067 6.00664C13.9912 5.52217 14.6483 5.25 15.3334 5.25H19.5834V16.25H14.5001Z" fill="#2C2C2C"/>
</svg>
