<svg width="24" height="24" viewBox="0 0 24 24" fill="none" xmlns="http://www.w3.org/2000/svg">
<g clip-path="url(#clip0_499_3596)">
<mask id="mask0_499_3596" style="mask-type:luminance" maskUnits="userSpaceOnUse" x="0" y="0" width="24" height="24">
<path d="M24 0H0V24H24V0Z" fill="white"/>
</mask>
<g mask="url(#mask0_499_3596)">
<path fill-rule="evenodd" clip-rule="evenodd" d="M17 3.64844C16.3323 3.64844 15.6919 3.9137 15.2197 4.38587L4.80302 14.8025C4.7069 14.8987 4.63871 15.0191 4.60574 15.151L3.77241 18.4843C3.70851 18.7399 3.7834 19.0102 3.96969 19.1965C4.15597 19.3828 4.42634 19.4577 4.68192 19.3938L8.01525 18.5605C8.14713 18.5275 8.26756 18.4593 8.36368 18.3632L18.7803 7.94653C19.0141 7.71274 19.1996 7.43518 19.3261 7.12971C19.4527 6.82424 19.5178 6.49684 19.5178 6.1662C19.5178 5.83557 19.4527 5.50817 19.3261 5.2027C19.1996 4.89723 19.0141 4.61967 18.7803 4.38587C18.5465 4.15208 18.269 3.96662 17.9635 3.84009C17.6581 3.71356 17.3307 3.64844 17 3.64844ZM16.2803 5.44653C16.4712 5.25567 16.7301 5.14844 17 5.14844C17.1337 5.14844 17.266 5.17476 17.3895 5.22591C17.513 5.27706 17.6252 5.35203 17.7197 5.44653C17.8142 5.54104 17.8892 5.65324 17.9403 5.77672C17.9915 5.9002 18.0178 6.03255 18.0178 6.1662C18.0178 6.29986 17.9915 6.43221 17.9403 6.55569C17.8892 6.67917 17.8142 6.79137 17.7197 6.88587L7.44991 17.1556L5.53079 17.6354L6.01057 15.7163L16.2803 5.44653Z" fill="#2C2C2C"/>
<path d="M12 17.917C11.5858 17.917 11.25 18.2528 11.25 18.667C11.25 19.0812 11.5858 19.417 12 19.417H19.5C19.9142 19.417 20.25 19.0812 20.25 18.667C20.25 18.2528 19.9142 17.917 19.5 17.917H12Z" fill="#2C2C2C"/>
</g>
</g>
<defs>
<clipPath id="clip0_499_3596">
<rect width="24" height="24" fill="white"/>
</clipPath>
</defs>
</svg>
