<svg width="24" height="24" viewBox="0 0 24 24" fill="none" xmlns="http://www.w3.org/2000/svg">
<path fill-rule="evenodd" clip-rule="evenodd" d="M12 7.08301C10.2051 7.08301 8.75 8.53808 8.75 10.333C8.75 12.1279 10.2051 13.583 12 13.583C13.7949 13.583 15.25 12.1279 15.25 10.333C15.25 8.53808 13.7949 7.08301 12 7.08301ZM10.25 10.333C10.25 9.36651 11.0335 8.58301 12 8.58301C12.9665 8.58301 13.75 9.36651 13.75 10.333C13.75 11.2995 12.9665 12.083 12 12.083C11.0335 12.083 10.25 11.2995 10.25 10.333Z" fill="#2C2C2C"/>
<path fill-rule="evenodd" clip-rule="evenodd" d="M11.5836 21.7901C11.5838 21.7903 11.584 21.7904 12 21.1663L11.5836 21.7901C11.8355 21.958 12.1641 21.9583 12.416 21.7904L12 21.1663C12.416 21.7904 12.4158 21.7906 12.416 21.7904L12.417 21.7897L12.4187 21.7886L12.4241 21.785C12.4286 21.7819 12.4349 21.7777 12.4429 21.7722C12.4589 21.7614 12.4819 21.7457 12.5113 21.7253C12.57 21.6846 12.6546 21.6252 12.7614 21.5481C12.9748 21.394 13.2773 21.1688 13.6391 20.8807C14.3615 20.3054 15.3267 19.4745 16.2945 18.453C18.1993 16.4423 20.25 13.5511 20.25 10.333C20.25 8.14497 19.3808 6.04655 17.8336 4.49938C16.2865 2.9522 14.188 2.08301 12 2.08301C9.81196 2.08301 7.71354 2.9522 6.16637 4.49938C4.61919 6.04655 3.75 8.14497 3.75 10.333C3.75 13.5511 5.8007 16.4423 7.70554 18.453C8.67329 19.4745 9.6385 20.3054 10.3609 20.8807C10.7227 21.1688 11.0252 21.394 11.2386 21.5481C11.3454 21.6252 11.43 21.6846 11.4887 21.7253C11.5181 21.7457 11.5411 21.7614 11.5571 21.7722L11.5677 21.7794L11.5759 21.785L11.5813 21.7886L11.5836 21.7901ZM7.22703 5.56004C8.4929 4.29417 10.2098 3.58301 12 3.58301C13.7902 3.58301 15.5071 4.29417 16.773 5.56004C18.0388 6.82591 18.75 8.5428 18.75 10.333C18.75 12.9482 17.0507 15.4737 15.2055 17.4214C14.2983 18.379 13.3885 19.1627 12.7047 19.7072C12.426 19.9292 12.1858 20.1106 12 20.247C11.8142 20.1106 11.574 19.9292 11.2953 19.7072C10.6115 19.1627 9.70171 18.379 8.79446 17.4214C6.9493 15.4737 5.25 12.9482 5.25 10.333C5.25 8.5428 5.96116 6.82591 7.22703 5.56004Z" fill="#2C2C2C"/>
</svg>
