<svg width="24" height="24" viewBox="0 0 24 24" fill="none" xmlns="http://www.w3.org/2000/svg">
<path d="M12.7501 6.16699C12.7501 5.75278 12.4143 5.41699 12.0001 5.41699C11.5858 5.41699 11.2501 5.75278 11.2501 6.16699V11.25H6.16675C5.75253 11.25 5.41675 11.5858 5.41675 12C5.41675 12.4142 5.75253 12.75 6.16675 12.75H11.2501V17.8337C11.2501 18.2479 11.5858 18.5837 12.0001 18.5837C12.4143 18.5837 12.7501 18.2479 12.7501 17.8337V12.75H17.8334C18.2476 12.75 18.5834 12.4142 18.5834 12C18.5834 11.5858 18.2476 11.25 17.8334 11.25H12.7501V6.16699Z" fill="#2C2C2C"/>
</svg>
