<svg width="20" height="20" viewBox="0 0 20 20" fill="none" xmlns="http://www.w3.org/2000/svg">
<g clip-path="url(#clip0_499_3277)">
<mask id="mask0_499_3277" style="mask-type:luminance" maskUnits="userSpaceOnUse" x="0" y="0" width="20" height="20">
<path d="M20 0H0V20H20V0Z" fill="white"/>
</mask>
<g mask="url(#mask0_499_3277)">
<path fill-rule="evenodd" clip-rule="evenodd" d="M15.5554 2.34619C14.999 2.34619 14.4653 2.56724 14.0718 2.96072L7.47456 9.55794C7.39446 9.63804 7.33764 9.73841 7.31016 9.8483L6.61572 12.6261C6.56247 12.8391 6.62488 13.0644 6.78011 13.2196C6.93535 13.3748 7.16066 13.4372 7.37364 13.384L10.1514 12.6896C10.2613 12.6621 10.3617 12.6053 10.4418 12.5252L17.039 5.92794C17.4325 5.53446 17.6536 5.00079 17.6536 4.44433C17.6536 3.88787 17.4325 3.3542 17.039 2.96072C16.6456 2.56724 16.1119 2.34619 15.5554 2.34619ZM14.9557 3.84461C15.1148 3.68555 15.3305 3.59619 15.5554 3.59619C15.7804 3.59619 15.9961 3.68555 16.1551 3.84461C16.3142 4.00366 16.4036 4.21939 16.4036 4.44433C16.4036 4.66927 16.3142 4.885 16.1551 5.04406L9.6803 11.5189L8.08104 11.9187L8.48085 10.3194L14.9557 3.84461Z" fill="#2C2C2C"/>
<path d="M4.44431 3.81921C3.91019 3.81921 3.39795 4.03139 3.02027 4.40907C2.6426 4.78674 2.43042 5.29899 2.43042 5.8331V15.5553C2.43042 16.0894 2.6426 16.6016 3.02027 16.9793C3.39795 17.357 3.91019 17.5692 4.44431 17.5692H14.1665C14.7006 17.5692 15.2129 17.357 15.5906 16.9793C15.9682 16.6016 16.1804 16.0894 16.1804 15.5553V10.6942C16.1804 10.349 15.9006 10.0692 15.5554 10.0692C15.2102 10.0692 14.9304 10.349 14.9304 10.6942V15.5553C14.9304 15.7579 14.8499 15.9522 14.7067 16.0954C14.5634 16.2387 14.3691 16.3192 14.1665 16.3192H4.44431C4.24171 16.3192 4.04741 16.2387 3.90416 16.0954C3.7609 15.9522 3.68042 15.7579 3.68042 15.5553V5.8331C3.68042 5.63051 3.7609 5.43621 3.90416 5.29295C4.04741 5.14969 4.24171 5.06921 4.44431 5.06921H9.30542C9.6506 5.06921 9.93042 4.78939 9.93042 4.44421C9.93042 4.09904 9.6506 3.81921 9.30542 3.81921H4.44431Z" fill="#2C2C2C"/>
</g>
</g>
<defs>
<clipPath id="clip0_499_3277">
<rect width="20" height="20" fill="white"/>
</clipPath>
</defs>
</svg>
