<svg width="24" height="24" viewBox="0 0 24 24" fill="none" xmlns="http://www.w3.org/2000/svg">
<path d="M0 12C0 5.37258 5.37258 0 12 0C18.6274 0 24 5.37258 24 12C24 18.6274 18.6274 24 12 24C5.37258 24 0 18.6274 0 12Z" fill="#15C32D"/>
<path d="M17.9976 7.39137C18.2417 7.63545 18.2417 8.03118 17.9976 8.27525L10.3587 15.9141C10.2415 16.0314 10.0826 16.0972 9.9168 16.0972C9.75104 16.0972 9.59207 16.0314 9.47486 15.9141L6.00264 12.4419C5.75856 12.1978 5.75856 11.8021 6.00264 11.558C6.24672 11.314 6.64244 11.314 6.88652 11.558L9.9168 14.5883L17.1137 7.39137C17.3578 7.14729 17.7536 7.14729 17.9976 7.39137Z" fill="white"/>
</svg>
