<svg width="56" height="58" viewBox="0 0 56 58" fill="none" xmlns="http://www.w3.org/2000/svg">
<g filter="url(#filter0_f_1054_1303)">
<path d="M28.2749 7.68352C24.641 12.6174 24.0108 19.3509 27.2165 24.9033C30.4222 30.4556 36.5686 33.2767 42.6585 32.5965C41.3636 34.3546 39.6873 35.8842 37.6673 37.0505C29.9783 41.4898 20.2204 38.9836 15.8725 31.4528C11.5246 23.9219 14.2331 14.2183 21.9221 9.77903C23.9421 8.61276 26.1049 7.92587 28.2749 7.68352Z" fill="#FFEE94"/>
</g>
<g filter="url(#filter1_i_1054_1303)">
<path d="M27.936 9.76312C24.6188 14.267 24.0436 20.4135 26.9698 25.4819C29.896 30.5503 35.5067 33.1254 41.0657 32.5045C39.8837 34.1094 38.3536 35.5057 36.5096 36.5703C29.4908 40.6226 20.5835 38.3348 16.6146 31.4605C12.6457 24.5861 15.1181 15.7283 22.1369 11.676C23.9808 10.6114 25.9551 9.98435 27.936 9.76312Z" fill="url(#paint0_linear_1054_1303)"/>
</g>
<g filter="url(#filter3_di_1054_1303)">
<path d="M41.0011 32.2866C41.0793 31.843 41.12 31.3867 41.12 30.9209C41.12 26.5635 37.5547 23.0311 33.1567 23.0311C29.8872 23.0311 27.0778 24.9833 25.8514 27.7754C24.8579 26.9256 23.5686 26.4124 22.1598 26.4124C19.0183 26.4124 16.4717 28.9636 16.4717 32.1106C16.4717 32.2858 16.4796 32.4592 16.4951 32.6304C14.9841 33.3637 13.9437 34.9023 13.9437 36.6816C13.9437 39.1716 15.981 41.1901 18.4941 41.1901H39.9824C42.4955 41.1901 44.5328 39.1716 44.5328 36.6816C44.5328 34.5387 43.0238 32.745 41.0011 32.2866Z" fill="url(#paint1_linear_1054_1303)" shape-rendering="crispEdges"/>
<path d="M41.0011 32.2866C41.0793 31.843 41.12 31.3867 41.12 30.9209C41.12 26.5635 37.5547 23.0311 33.1567 23.0311C29.8872 23.0311 27.0778 24.9833 25.8514 27.7754C24.8579 26.9256 23.5686 26.4124 22.1598 26.4124C19.0183 26.4124 16.4717 28.9636 16.4717 32.1106C16.4717 32.2858 16.4796 32.4592 16.4951 32.6304C14.9841 33.3637 13.9437 34.9023 13.9437 36.6816C13.9437 39.1716 15.981 41.1901 18.4941 41.1901H39.9824C42.4955 41.1901 44.5328 39.1716 44.5328 36.6816C44.5328 34.5387 43.0238 32.745 41.0011 32.2866Z" fill="url(#paint2_linear_1054_1303)" shape-rendering="crispEdges"/>
</g>
<g filter="url(#filter4_i_1054_1303)">
<path d="M22.1754 36.2802C20.3743 38.6507 17.8528 43.3917 22.1754 43.3917C26.498 43.3917 23.9765 38.6507 22.1754 36.2802Z" fill="#00BCFF"/>
</g>
<g filter="url(#filter5_i_1054_1303)">
<path d="M36.2036 36.2802C34.4025 38.6507 31.881 43.3917 36.2036 43.3917C40.5262 43.3917 38.0047 38.6507 36.2036 36.2802Z" fill="#00BCFF"/>
</g>
<g filter="url(#filter6_i_1054_1303)">
<path d="M29.4817 46.1192C27.6806 48.4897 25.1591 53.2307 29.4817 53.2307C33.8043 53.2307 31.2828 48.4897 29.4817 46.1192Z" fill="#00BCFF"/>
</g>
<g filter="url(#filter7_f_1054_1303)">
<rect x="17.548" y="41.7353" width="23.3802" height="3.40962" rx="1.70481" fill="#00BCFF" fill-opacity="0.4"/>
</g>
<defs>
<filter id="filter0_f_1054_1303" x="6.11444" y="0" width="44.2275" height="46.9293" filterUnits="userSpaceOnUse" color-interpolation-filters="sRGB">
<feFlood flood-opacity="0" result="BackgroundImageFix"/>
<feBlend mode="normal" in="SourceGraphic" in2="BackgroundImageFix" result="shape"/>
<feGaussianBlur stdDeviation="3.84177" result="effect1_foregroundBlur_1054_1303"/>
</filter>
<filter id="filter1_i_1054_1303" x="14.7209" y="9.76312" width="26.3447" height="29.391" filterUnits="userSpaceOnUse" color-interpolation-filters="sRGB">
<feFlood flood-opacity="0" result="BackgroundImageFix"/>
<feBlend mode="normal" in="SourceGraphic" in2="BackgroundImageFix" result="shape"/>
<feColorMatrix in="SourceAlpha" type="matrix" values="0 0 0 0 0 0 0 0 0 0 0 0 0 0 0 0 0 0 127 0" result="hardAlpha"/>
<feOffset dy="0.579889"/>
<feGaussianBlur stdDeviation="0.579889"/>
<feComposite in2="hardAlpha" operator="arithmetic" k2="-1" k3="1"/>
<feColorMatrix type="matrix" values="0 0 0 0 1 0 0 0 0 1 0 0 0 0 1 0 0 0 0.55 0"/>
<feBlend mode="normal" in2="shape" result="effect1_innerShadow_1054_1303"/>
</filter>
<filter id="filter3_di_1054_1303" x="8.44373" y="19.7311" width="41.5891" height="29.1589" filterUnits="userSpaceOnUse" color-interpolation-filters="sRGB">
<feFlood flood-opacity="0" result="BackgroundImageFix"/>
<feColorMatrix in="SourceAlpha" type="matrix" values="0 0 0 0 0 0 0 0 0 0 0 0 0 0 0 0 0 0 127 0" result="hardAlpha"/>
<feOffset dy="2.2"/>
<feGaussianBlur stdDeviation="2.75"/>
<feComposite in2="hardAlpha" operator="out"/>
<feColorMatrix type="matrix" values="0 0 0 0 0.708133 0 0 0 0 0.708133 0 0 0 0 0.708133 0 0 0 0.25 0"/>
<feBlend mode="normal" in2="BackgroundImageFix" result="effect1_dropShadow_1054_1303"/>
<feBlend mode="normal" in="SourceGraphic" in2="effect1_dropShadow_1054_1303" result="shape"/>
<feColorMatrix in="SourceAlpha" type="matrix" values="0 0 0 0 0 0 0 0 0 0 0 0 0 0 0 0 0 0 127 0" result="hardAlpha"/>
<feOffset dy="1.7"/>
<feGaussianBlur stdDeviation="0.75"/>
<feComposite in2="hardAlpha" operator="arithmetic" k2="-1" k3="1"/>
<feColorMatrix type="matrix" values="0 0 0 0 0.797884 0 0 0 0 0.797884 0 0 0 0 0.797884 0 0 0 1 0"/>
<feBlend mode="normal" in2="shape" result="effect2_innerShadow_1054_1303"/>
</filter>
<filter id="filter4_i_1054_1303" x="19.7887" y="36.2802" width="4.77344" height="7.54643" filterUnits="userSpaceOnUse" color-interpolation-filters="sRGB">
<feFlood flood-opacity="0" result="BackgroundImageFix"/>
<feBlend mode="normal" in="SourceGraphic" in2="BackgroundImageFix" result="shape"/>
<feColorMatrix in="SourceAlpha" type="matrix" values="0 0 0 0 0 0 0 0 0 0 0 0 0 0 0 0 0 0 127 0" result="hardAlpha"/>
<feOffset dy="1.30475"/>
<feGaussianBlur stdDeviation="0.217459"/>
<feComposite in2="hardAlpha" operator="arithmetic" k2="-1" k3="1"/>
<feColorMatrix type="matrix" values="0 0 0 0 1 0 0 0 0 1 0 0 0 0 1 0 0 0 0.21 0"/>
<feBlend mode="normal" in2="shape" result="effect1_innerShadow_1054_1303"/>
</filter>
<filter id="filter5_i_1054_1303" x="33.8169" y="36.2802" width="4.77344" height="7.54643" filterUnits="userSpaceOnUse" color-interpolation-filters="sRGB">
<feFlood flood-opacity="0" result="BackgroundImageFix"/>
<feBlend mode="normal" in="SourceGraphic" in2="BackgroundImageFix" result="shape"/>
<feColorMatrix in="SourceAlpha" type="matrix" values="0 0 0 0 0 0 0 0 0 0 0 0 0 0 0 0 0 0 127 0" result="hardAlpha"/>
<feOffset dy="1.30475"/>
<feGaussianBlur stdDeviation="0.217459"/>
<feComposite in2="hardAlpha" operator="arithmetic" k2="-1" k3="1"/>
<feColorMatrix type="matrix" values="0 0 0 0 1 0 0 0 0 1 0 0 0 0 1 0 0 0 0.21 0"/>
<feBlend mode="normal" in2="shape" result="effect1_innerShadow_1054_1303"/>
</filter>
<filter id="filter6_i_1054_1303" x="27.095" y="46.1192" width="4.77344" height="7.54643" filterUnits="userSpaceOnUse" color-interpolation-filters="sRGB">
<feFlood flood-opacity="0" result="BackgroundImageFix"/>
<feBlend mode="normal" in="SourceGraphic" in2="BackgroundImageFix" result="shape"/>
<feColorMatrix in="SourceAlpha" type="matrix" values="0 0 0 0 0 0 0 0 0 0 0 0 0 0 0 0 0 0 127 0" result="hardAlpha"/>
<feOffset dy="1.30475"/>
<feGaussianBlur stdDeviation="0.217459"/>
<feComposite in2="hardAlpha" operator="arithmetic" k2="-1" k3="1"/>
<feColorMatrix type="matrix" values="0 0 0 0 1 0 0 0 0 1 0 0 0 0 1 0 0 0 0.21 0"/>
<feBlend mode="normal" in2="shape" result="effect1_innerShadow_1054_1303"/>
</filter>
<filter id="filter7_f_1054_1303" x="6.24013" y="30.4274" width="45.9959" height="26.0253" filterUnits="userSpaceOnUse" color-interpolation-filters="sRGB">
<feFlood flood-opacity="0" result="BackgroundImageFix"/>
<feBlend mode="normal" in="SourceGraphic" in2="BackgroundImageFix" result="shape"/>
<feGaussianBlur stdDeviation="5.65392" result="effect1_foregroundBlur_1054_1303"/>
</filter>
<linearGradient id="paint0_linear_1054_1303" x1="28.6583" y1="7.37459" x2="23.3921" y2="39.2614" gradientUnits="userSpaceOnUse">
<stop stop-color="#FFEE94"/>
<stop offset="1" stop-color="#FF9900"/>
</linearGradient>
<linearGradient id="paint1_linear_1054_1303" x1="15.8893" y1="39.5687" x2="46.7487" y2="16.4917" gradientUnits="userSpaceOnUse">
<stop stop-color="white"/>
<stop offset="1" stop-color="white" stop-opacity="0.58"/>
</linearGradient>
<linearGradient id="paint2_linear_1054_1303" x1="15.8893" y1="39.5687" x2="46.7487" y2="16.4917" gradientUnits="userSpaceOnUse">
<stop stop-color="#959595"/>
<stop offset="1" stop-color="#959595" stop-opacity="0.58"/>
</linearGradient>
</defs>
</svg>
