<svg width="16" height="16" viewBox="0 0 16 16" fill="none" xmlns="http://www.w3.org/2000/svg">
<path fill-rule="evenodd" clip-rule="evenodd" d="M5 4.41677V1.76137C5 1.61616 4.8794 1.5 4.73367 1.5H3.27135C3.1206 1.5 3 1.61616 3 1.76137V6.08435L2.5 6.50125V14.5013H13.5V7.00125L8.035 1.88623L5 4.41677Z" fill="#5726E7"/>
<path d="M7.96 13.5012H4.04C4.02 13.5012 4 13.4812 4 13.4612V8.19624C4 7.82124 4.305 7.51624 4.68 7.51624H7.325C7.7 7.51624 8.005 7.82124 8.005 8.19624V13.4612C8 13.4812 7.98 13.5012 7.96 13.5012Z" fill="#5726E7"/>
<path d="M7.25 10.5012C7.38805 10.5012 7.5 10.3893 7.5 10.2512C7.5 10.1131 7.38805 10.0012 7.25 10.0012C7.11195 10.0012 7 10.1131 7 10.2512C7 10.3893 7.11195 10.5012 7.25 10.5012Z" fill="#5726E7"/>
<path d="M7.98 14.0012H4C3.725 14.0012 3.5 13.7762 3.5 13.5012C3.5 13.2262 3.725 13.0012 4 13.0012H7.98C8.255 13.0012 8.48 13.2262 8.48 13.5012C8.48 13.7762 8.255 14.0012 7.98 14.0012Z" fill="#5726E7"/>
<path d="M15 14.5012H1V14.4562C1 13.9262 1.425 13.5012 1.955 13.5012H14.045C14.57 13.5012 15 13.9262 15 14.4562V14.5012Z" fill="#5726E7"/>
<path d="M8.44 1.17625L14.82 7.46125C15.06 7.69625 15.06 8.07625 14.82 8.30625C14.585 8.54125 14.2 8.54125 13.96 8.30625L8.01 2.44625L2.04 8.32625C1.805 8.56125 1.42 8.56125 1.18 8.32625C0.94 8.09125 0.94 7.71125 1.18 7.47625L7.58 1.17625C7.815 0.94125 8.2 0.94125 8.44 1.17625Z" fill="#5726E7"/>
<path d="M11.57 10.5012H9.43C9.19 10.5012 9 10.3112 9 10.0712V7.93122C9 7.69622 9.19 7.50122 9.43 7.50122H11.57C11.805 7.50122 12 7.69122 12 7.93122V10.0712C12 10.3112 11.81 10.5012 11.57 10.5012Z" fill="#5726E7"/>
</svg>
