<svg width="14" height="14" viewBox="0 0 14 14" fill="none" xmlns="http://www.w3.org/2000/svg">
<path fill-rule="evenodd" clip-rule="evenodd" d="M4.375 3.86467V1.5412C4.375 1.41414 4.26947 1.3125 4.14196 1.3125H2.86244C2.73053 1.3125 2.625 1.41414 2.625 1.5412V5.32381L2.1875 5.68859V12.6886H11.8125V6.12609L7.03062 1.65045L4.375 3.86467Z" fill="#5726E7"/>
<path d="M6.965 11.8135H3.535C3.5175 11.8135 3.5 11.796 3.5 11.7785V7.17166C3.5 6.84354 3.76687 6.57666 4.095 6.57666H6.40937C6.7375 6.57666 7.00438 6.84354 7.00438 7.17166V11.7785C7 11.796 6.9825 11.8135 6.965 11.8135Z" fill="#5726E7"/>
<path d="M6.34375 9.1886C6.46454 9.1886 6.5625 9.09069 6.5625 8.96985C6.5625 8.84905 6.46454 8.7511 6.34375 8.7511C6.22296 8.7511 6.125 8.84905 6.125 8.96985C6.125 9.09069 6.22296 9.1886 6.34375 9.1886Z" fill="#5726E7"/>
<path d="M6.9825 12.251H3.5C3.25937 12.251 3.0625 12.0542 3.0625 11.8135C3.0625 11.5729 3.25937 11.376 3.5 11.376H6.9825C7.22313 11.376 7.42 11.5729 7.42 11.8135C7.42 12.0542 7.22313 12.251 6.9825 12.251Z" fill="#5726E7"/>
<path d="M13.125 12.6885H0.875V12.6492C0.875 12.1854 1.24688 11.8135 1.71063 11.8135H12.2894C12.7488 11.8135 13.125 12.1854 13.125 12.6492V12.6885Z" fill="#5726E7"/>
<path d="M7.385 1.02922L12.9675 6.52859C13.1775 6.73422 13.1775 7.06672 12.9675 7.26797C12.7619 7.47359 12.425 7.47359 12.215 7.26797L7.00875 2.14047L1.785 7.28547C1.57937 7.49109 1.2425 7.49109 1.0325 7.28547C0.8225 7.07984 0.8225 6.74734 1.0325 6.54172L6.6325 1.02922C6.83812 0.823593 7.175 0.823593 7.385 1.02922Z" fill="#5726E7"/>
<path d="M10.1237 9.1886H8.25125C8.04125 9.1886 7.875 9.02235 7.875 8.81235V6.93985C7.875 6.73422 8.04125 6.5636 8.25125 6.5636H10.1237C10.3294 6.5636 10.5 6.72985 10.5 6.93985V8.81235C10.5 9.02235 10.3337 9.1886 10.1237 9.1886Z" fill="#5726E7"/>
</svg>
