<svg width="28" height="28" viewBox="0 0 28 28" fill="none" xmlns="http://www.w3.org/2000/svg">
<path d="M5.25005 10.1111H22.7501C23.0079 10.1111 23.2552 10.0086 23.4375 9.82631C23.6198 9.64399 23.7223 9.3967 23.7223 9.13885C23.7223 8.881 23.6198 8.63371 23.4375 8.45138C23.2552 8.26906 23.0079 8.16663 22.7501 8.16663H5.25005C4.9922 8.16663 4.74492 8.26906 4.56259 8.45138C4.38026 8.63371 4.27783 8.881 4.27783 9.13885C4.27783 9.3967 4.38026 9.64399 4.56259 9.82631C4.74492 10.0086 4.9922 10.1111 5.25005 10.1111ZM22.7501 17.8888H5.25005C4.9922 17.8888 4.74492 17.9913 4.56259 18.1736C4.38026 18.3559 4.27783 18.6032 4.27783 18.8611C4.27783 19.1189 4.38026 19.3662 4.56259 19.5485C4.74492 19.7309 4.9922 19.8333 5.25005 19.8333H22.7501C23.0079 19.8333 23.2552 19.7309 23.4375 19.5485C23.6198 19.3662 23.7223 19.1189 23.7223 18.8611C23.7223 18.6032 23.6198 18.3559 23.4375 18.1736C23.2552 17.9913 23.0079 17.8888 22.7501 17.8888ZM22.7501 13.0277H5.25005C4.9922 13.0277 4.74492 13.1302 4.56259 13.3125C4.38026 13.4948 4.27783 13.7421 4.27783 14C4.27783 14.2578 4.38026 14.5051 4.56259 14.6874C4.74492 14.8698 4.9922 14.9722 5.25005 14.9722H22.7501C23.0079 14.9722 23.2552 14.8698 23.4375 14.6874C23.6198 14.5051 23.7223 14.2578 23.7223 14C23.7223 13.7421 23.6198 13.4948 23.4375 13.3125C23.2552 13.1302 23.0079 13.0277 22.7501 13.0277Z" fill="#2C2C2C"/>
</svg>
