<svg width="28" height="28" viewBox="0 0 28 28" fill="none" xmlns="http://www.w3.org/2000/svg">
<path fill-rule="evenodd" clip-rule="evenodd" d="M14.0001 3.4032C14.3331 3.4032 14.6373 3.59226 14.7847 3.8909L17.5855 9.56497L23.8488 10.4805C24.1783 10.5286 24.4519 10.7596 24.5546 11.0764C24.6573 11.3931 24.5714 11.7407 24.3328 11.9731L19.8014 16.3867L20.8708 22.622C20.9271 22.9502 20.7922 23.282 20.5227 23.4778C20.2532 23.6735 19.8959 23.6993 19.6011 23.5443L14.0001 20.5988L8.39902 23.5443C8.10421 23.6993 7.74696 23.6735 7.47748 23.4778C7.208 23.282 7.07303 22.9502 7.12934 22.622L8.19876 16.3867L3.66734 11.9731C3.4288 11.7407 3.34281 11.3931 3.44552 11.0764C3.54822 10.7596 3.82182 10.5286 4.15131 10.4805L10.4147 9.56497L13.2155 3.8909C13.3629 3.59226 13.667 3.4032 14.0001 3.4032ZM14.0001 6.25505L11.7805 10.7516C11.6532 11.0096 11.4071 11.1885 11.1225 11.2301L6.15772 11.9558L9.74948 15.4542C9.95587 15.6552 10.0501 15.9449 10.0014 16.2289L9.1539 21.1701L13.5928 18.8357C13.8478 18.7016 14.1524 18.7016 14.4073 18.8357L18.8463 21.1701L17.9988 16.2289C17.9501 15.9449 18.0443 15.6552 18.2507 15.4542L21.8424 11.9558L16.8777 11.2301C16.593 11.1885 16.347 11.0096 16.2196 10.7516L14.0001 6.25505Z" fill="#2C2C2C"/>
</svg>
