<svg width="16" height="16" viewBox="0 0 16 16" fill="none" xmlns="http://www.w3.org/2000/svg">
<g clip-path="url(#clip0_499_3148)">
<mask id="mask0_499_3148" style="mask-type:luminance" maskUnits="userSpaceOnUse" x="0" y="0" width="16" height="16">
<path d="M16 0H0V16H16V0Z" fill="white"/>
</mask>
<g mask="url(#mask0_499_3148)">
<path d="M7.73565 5.28556C5.40365 5.28556 3.45765 6.24076 2.99805 7.51236C3.84885 8.47316 5.67365 9.15676 7.73565 9.15676C9.79765 9.15676 11.6228 8.47316 12.4732 7.51236C12.4472 7.44116 12.4148 7.37116 12.3796 7.30156C11.7912 6.13676 9.93685 5.28556 7.73565 5.28556Z" fill="white"/>
<path d="M12.1775 6.07891C12.1775 6.20862 12.1515 6.33462 12.1145 6.46062C12.044 6.71262 11.9032 6.95351 11.7031 7.17957C11.6809 7.11286 11.6512 7.04986 11.6179 6.98686C11.0731 5.90473 9.35355 5.11908 7.3153 5.11908C5.15475 5.11908 3.34996 6.00109 2.92378 7.17957C2.6273 6.84233 2.45312 6.46803 2.45312 6.07891C2.45312 4.65584 4.68039 3.45142 7.3153 3.45142C9.95021 3.45142 12.1775 4.65584 12.1775 6.07891Z" fill="#FF6C11"/>
<path d="M12.6249 6.47871V6.15259L12.6175 6.17482C12.6063 6.35271 12.5767 6.52689 12.5174 6.69736C12.484 6.79742 12.4396 6.89748 12.3877 6.99383C11.7132 8.24643 9.69719 9.15438 7.31429 9.15438C4.93138 9.15438 2.91166 8.24643 2.24088 6.99383C2.189 6.89748 2.14453 6.79742 2.10747 6.69736C2.04818 6.52689 2.01853 6.35271 2.00741 6.17482L2 6.15259V7.91661C2 8.52067 2.10747 9.09879 2.29277 9.64356C2.60036 10.533 3.13401 11.315 3.83072 11.919C4.76461 12.7306 5.98016 13.2272 7.31429 13.2272C8.64842 13.2272 9.86396 12.7306 10.7978 11.919C11.2463 11.5262 11.6317 11.0593 11.9282 10.5367H12.358C12.6508 10.5367 12.9288 10.4737 13.1808 10.3625C13.896 10.0475 14.4 9.33227 14.4 8.49843C14.4 7.46448 13.6255 6.61212 12.6249 6.47871ZM12.358 9.65097H12.3284C12.3309 9.6485 12.3321 9.64603 12.3321 9.64356C12.5211 9.09879 12.6249 8.52067 12.6249 7.91661V7.38295C13.1326 7.50154 13.5106 7.95737 13.5106 8.49843C13.5106 9.13585 12.9955 9.65097 12.358 9.65097Z" fill="#FF6C11"/>
<path d="M12.333 9.64453C12.3319 9.6475 12.3308 9.65009 12.3301 9.65306H12.3468C12.3423 9.65009 12.3371 9.6475 12.333 9.64453Z" fill="#E5E8EB"/>
<path d="M12.5989 5.76462C12.5619 5.55708 12.4915 5.35696 12.3877 5.16426C12.2839 4.97155 12.1468 4.78625 11.9837 4.61208C11.9022 4.52313 11.8133 4.4416 11.7206 4.35637C11.5279 4.19331 11.3093 4.04136 11.0684 3.90424C10.1085 3.34465 8.78183 3 7.31429 3C5.84674 3 4.51632 3.34465 3.55649 3.90424C3.3156 4.04136 3.10066 4.19331 2.90795 4.35637C2.8116 4.4416 2.72265 4.52313 2.64112 4.61208C2.47806 4.78625 2.34465 4.97155 2.24088 5.16426C2.13712 5.35696 2.063 5.55708 2.02965 5.76462C2.01112 5.86838 2 5.97215 2 6.07962C2 6.11297 2.00741 6.14262 2.00741 6.17597C2.01853 6.35386 2.04818 6.52803 2.10747 6.69851C2.14453 6.79857 2.189 6.89863 2.24088 6.99498C2.91166 8.24758 4.92768 9.15553 7.31429 9.15553C9.7009 9.15553 11.7132 8.24758 12.3877 6.99498C12.4396 6.89863 12.484 6.79857 12.5174 6.69851C12.5767 6.52803 12.6063 6.35386 12.6175 6.17597C12.6212 6.14262 12.6249 6.11297 12.6249 6.07962C12.6249 5.97215 12.6175 5.86838 12.5989 5.76462ZM12.1135 6.46133C12.043 6.71333 11.9022 6.95422 11.7021 7.18028C10.9164 8.0697 9.22283 8.70341 7.31429 8.70341C5.40574 8.70341 3.71213 8.0697 2.92277 7.18028C2.6263 6.84304 2.45212 6.46874 2.45212 6.07962C2.45212 4.65655 4.67938 3.45212 7.31429 3.45212C9.94919 3.45212 12.1765 4.65655 12.1765 6.07962C12.1765 6.20933 12.1505 6.33533 12.1135 6.46133Z" fill="#FF6C11"/>
</g>
</g>
<defs>
<clipPath id="clip0_499_3148">
<rect width="16" height="16" fill="white"/>
</clipPath>
</defs>
</svg>
