<svg width="16" height="16" viewBox="0 0 16 16" fill="none" xmlns="http://www.w3.org/2000/svg">
<path d="M6.835 1.00034C6.57 1.00034 6.36 1.21034 6.36 1.47034V3.32034C6.36 3.45534 6.25 3.56534 6.115 3.56534C5.98 3.56534 5.87 3.45534 5.87 3.32034V1.49034C5.87 1.23034 5.67 1.00534 5.415 1.00034C5.15 0.990331 4.93 1.20534 4.93 1.47034V3.32034C4.93 3.45534 4.82 3.56534 4.685 3.56534C4.55 3.56534 4.44 3.45534 4.44 3.32034V1.49034C4.44 1.23034 4.24 1.00534 3.985 1.00034C3.72 0.990331 3.5 1.20534 3.5 1.47034V4.63034C3.5 5.25005 3.7947 5.79985 4.25148 6.1472C4.675 6.4567 4.675 7.45535 4.675 7.45535V14.3553C4.675 14.7103 4.965 15.0003 5.32 15.0003H5.48C5.835 15.0003 6.125 14.7103 6.125 14.3553V7.45035C6.125 7.45035 6.125 6.4322 6.5419 6.1472C7.00245 5.80015 7.3 5.24805 7.3 4.62534V1.47034C7.305 1.21034 7.095 1.00034 6.835 1.00034Z" fill="#FF6C11"/>
<path d="M11.5299 1.00049C12.1499 1.00049 12.6499 1.50049 12.6499 2.12049V8.94548L12.6449 8.94368V14.3505C12.6449 14.7055 12.3549 14.9955 11.9999 14.9955H11.8399C11.4849 14.9955 11.1949 14.7055 11.1949 14.3505V8.41863C10.4226 8.06843 9.91995 7.29568 9.91995 6.43548V2.61049C9.91495 1.72049 10.6399 1.00049 11.5299 1.00049Z" fill="#FF6C11"/>
</svg>
