<svg width="24" height="24" viewBox="0 0 24 24" fill="none" xmlns="http://www.w3.org/2000/svg">
<g clip-path="url(#clip0_499_3603)">
<mask id="mask0_499_3603" style="mask-type:luminance" maskUnits="userSpaceOnUse" x="0" y="0" width="24" height="24">
<path d="M24 0H0V24H24V0Z" fill="white"/>
</mask>
<g mask="url(#mask0_499_3603)">
<path fill-rule="evenodd" clip-rule="evenodd" d="M12.4605 3.07498C12.1896 2.86433 11.8104 2.86433 11.5395 3.07498L4.03954 8.90831C3.85685 9.0504 3.75 9.26888 3.75 9.50033V18.667C3.75 19.3079 4.00461 19.9226 4.45783 20.3758C4.91104 20.829 5.52573 21.0837 6.16667 21.0837H17.8333C18.4743 21.0837 19.089 20.829 19.5422 20.3758C19.9954 19.9226 20.25 19.3079 20.25 18.667V9.50033C20.25 9.26888 20.1431 9.0504 19.9605 8.90831L12.4605 3.07498ZM5.25 18.667V9.86714L12 4.61714L18.75 9.86714V18.667C18.75 18.9101 18.6534 19.1433 18.4815 19.3152C18.3096 19.4871 18.0764 19.5837 17.8333 19.5837H15.25V12C15.25 11.5858 14.9142 11.25 14.5 11.25H9.5C9.08579 11.25 8.75 11.5858 8.75 12V19.5837H6.16667C5.92355 19.5837 5.69039 19.4871 5.51849 19.3152C5.34658 19.1433 5.25 18.9101 5.25 18.667ZM10.25 19.5837H13.75V12.75H10.25V19.5837Z" fill="#2C2C2C"/>
</g>
</g>
<defs>
<clipPath id="clip0_499_3603">
<rect width="24" height="24" fill="white"/>
</clipPath>
</defs>
</svg>
