<svg width="20" height="20" viewBox="0 0 20 20" fill="none" xmlns="http://www.w3.org/2000/svg">
<g clip-path="url(#clip0_499_3308)">
<mask id="mask0_499_3308" style="mask-type:luminance" maskUnits="userSpaceOnUse" x="0" y="0" width="20" height="20">
<path d="M20 0H0V20H20V0Z" fill="white"/>
</mask>
<g mask="url(#mask0_499_3308)">
<path d="M10 1.66663C6.66671 1.66663 3.33337 2.08329 3.33337 4.99996V12.9167C3.33337 14.525 4.64171 15.8333 6.25004 15.8333L5.00004 17.0833V17.5H6.85837L8.52504 15.8333H11.6667L13.3334 17.5H15V17.0833L13.75 15.8333C15.3584 15.8333 16.6667 14.525 16.6667 12.9167V4.99996C16.6667 2.08329 13.6834 1.66663 10 1.66663ZM6.25004 14.1667C5.55837 14.1667 5.00004 13.6083 5.00004 12.9167C5.00004 12.225 5.55837 11.6667 6.25004 11.6667C6.94171 11.6667 7.50004 12.225 7.50004 12.9167C7.50004 13.6083 6.94171 14.1667 6.25004 14.1667ZM9.16671 8.33329H5.00004V4.99996H9.16671V8.33329ZM10.8334 8.33329V4.99996H15V8.33329H10.8334ZM13.75 14.1667C13.0584 14.1667 12.5 13.6083 12.5 12.9167C12.5 12.225 13.0584 11.6667 13.75 11.6667C14.4417 11.6667 15 12.225 15 12.9167C15 13.6083 14.4417 14.1667 13.75 14.1667Z" fill="#2C2C2C"/>
</g>
</g>
<defs>
<clipPath id="clip0_499_3308">
<rect width="20" height="20" fill="white"/>
</clipPath>
</defs>
</svg>
