<svg width="28" height="28" viewBox="0 0 28 28" fill="none" xmlns="http://www.w3.org/2000/svg">
<path d="M14.875 7.19482C14.875 6.71158 14.4832 6.31982 14 6.31982C13.5167 6.31982 13.125 6.71158 13.125 7.19482V13.125H7.19446C6.71121 13.125 6.31946 13.5168 6.31946 14C6.31946 14.4832 6.71121 14.875 7.19446 14.875H13.125V20.8059C13.125 21.2892 13.5167 21.6809 14 21.6809C14.4832 21.6809 14.875 21.2892 14.875 20.8059V14.875H20.8056C21.2888 14.875 21.6806 14.4832 21.6806 14C21.6806 13.5168 21.2888 13.125 20.8056 13.125H14.875V7.19482Z" fill="#2C2C2C"/>
</svg>
