<svg width="24" height="24" viewBox="0 0 24 24" fill="none" xmlns="http://www.w3.org/2000/svg">
<path d="M12.7501 7C12.7501 6.58579 12.4143 6.25 12.0001 6.25C11.5858 6.25 11.2501 6.58579 11.2501 7V12C11.2501 12.2841 11.4106 12.5438 11.6647 12.6708L14.998 14.3375C15.3685 14.5227 15.819 14.3726 16.0042 14.0021C16.1895 13.6316 16.0393 13.1811 15.6688 12.9958L12.7501 11.5365V7Z" fill="#2C2C2C"/>
<path fill-rule="evenodd" clip-rule="evenodd" d="M12.0001 2.91699C6.98349 2.91699 2.91675 6.98374 2.91675 12.0003C2.91675 17.0169 6.98349 21.0837 12.0001 21.0837C17.0167 21.0837 21.0834 17.0169 21.0834 12.0003C21.0834 6.98374 17.0167 2.91699 12.0001 2.91699ZM4.41675 12.0003C4.41675 7.81217 7.81192 4.41699 12.0001 4.41699C16.1882 4.41699 19.5834 7.81217 19.5834 12.0003C19.5834 16.1885 16.1882 19.5837 12.0001 19.5837C7.81192 19.5837 4.41675 16.1885 4.41675 12.0003Z" fill="#2C2C2C"/>
</svg>
