<svg width="56" height="56" viewBox="0 0 56 56" fill="none" xmlns="http://www.w3.org/2000/svg">
<g filter="url(#filter0_i_1054_1271)">
<path d="M44.4707 15.959C44.5212 15.6734 44.5475 15.3796 44.5475 15.0798C44.5475 12.2745 42.2441 10.0004 39.4027 10.0004C37.2904 10.0004 35.4753 11.2572 34.683 13.0548C34.0411 12.5076 33.2082 12.1773 32.298 12.1773C30.2684 12.1773 28.6231 13.8197 28.6231 15.8457C28.6231 15.9585 28.6282 16.0702 28.6382 16.1804C27.662 16.6524 26.9898 17.643 26.9898 18.7885C26.9898 20.3915 28.306 21.691 29.9297 21.691H43.8125C45.4362 21.691 46.7524 20.3915 46.7524 18.7885C46.7524 17.4089 45.7775 16.2541 44.4707 15.959Z" fill="url(#paint0_linear_1054_1271)"/>
</g>
<g filter="url(#filter1_di_1054_1271)">
<path d="M45.4009 28.4971C45.4009 37.8964 37.8525 45.5161 28.541 45.5161C19.2296 45.5161 11.6812 37.8964 11.6812 28.4971C11.6812 19.0978 19.2296 11.4782 28.541 11.4782C37.8525 11.4782 45.4009 19.0978 45.4009 28.4971Z" fill="url(#paint1_linear_1054_1271)"/>
</g>
<g filter="url(#filter2_i_1054_1271)">
<path d="M22.481 36.556C22.5315 36.2704 22.5578 35.9766 22.5578 35.6767C22.5578 32.8715 20.2544 30.5974 17.413 30.5974C15.3006 30.5974 13.4856 31.8542 12.6933 33.6517C12.0514 33.1046 11.2184 32.7742 10.3082 32.7742C8.27864 32.7742 6.63334 34.4166 6.63334 36.4426C6.63334 36.5555 6.63844 36.6671 6.64843 36.7773C5.67224 37.2494 5.00007 38.2399 5.00007 39.3854C5.00007 40.9884 6.3163 42.2879 7.93996 42.2879H21.8228C23.4465 42.2879 24.7627 40.9884 24.7627 39.3854C24.7627 38.0058 23.7878 36.851 22.481 36.556Z" fill="url(#paint2_linear_1054_1271)"/>
</g>
<defs>
<filter id="filter0_i_1054_1271" x="26.9899" y="10.0004" width="19.7626" height="13.2811" filterUnits="userSpaceOnUse" color-interpolation-filters="sRGB">
<feFlood flood-opacity="0" result="BackgroundImageFix"/>
<feBlend mode="normal" in="SourceGraphic" in2="BackgroundImageFix" result="shape"/>
<feColorMatrix in="SourceAlpha" type="matrix" values="0 0 0 0 0 0 0 0 0 0 0 0 0 0 0 0 0 0 127 0" result="hardAlpha"/>
<feOffset dy="1.74961"/>
<feGaussianBlur stdDeviation="0.795277"/>
<feComposite in2="hardAlpha" operator="arithmetic" k2="-1" k3="1"/>
<feColorMatrix type="matrix" values="0 0 0 0 1 0 0 0 0 1 0 0 0 0 1 0 0 0 1 0"/>
<feBlend mode="normal" in2="shape" result="effect1_innerShadow_1054_1271"/>
</filter>
<filter id="filter1_di_1054_1271" x="5.68115" y="7.47821" width="45.7197" height="46.0378" filterUnits="userSpaceOnUse" color-interpolation-filters="sRGB">
<feFlood flood-opacity="0" result="BackgroundImageFix"/>
<feColorMatrix in="SourceAlpha" type="matrix" values="0 0 0 0 0 0 0 0 0 0 0 0 0 0 0 0 0 0 127 0" result="hardAlpha"/>
<feOffset dy="2"/>
<feGaussianBlur stdDeviation="3"/>
<feComposite in2="hardAlpha" operator="out"/>
<feColorMatrix type="matrix" values="0 0 0 0 1 0 0 0 0 0.937255 0 0 0 0 0.603922 0 0 0 1 0"/>
<feBlend mode="normal" in2="BackgroundImageFix" result="effect1_dropShadow_1054_1271"/>
<feBlend mode="normal" in="SourceGraphic" in2="effect1_dropShadow_1054_1271" result="shape"/>
<feColorMatrix in="SourceAlpha" type="matrix" values="0 0 0 0 0 0 0 0 0 0 0 0 0 0 0 0 0 0 127 0" result="hardAlpha"/>
<feOffset dy="0.795277"/>
<feGaussianBlur stdDeviation="1.4315"/>
<feComposite in2="hardAlpha" operator="arithmetic" k2="-1" k3="1"/>
<feColorMatrix type="matrix" values="0 0 0 0 1 0 0 0 0 1 0 0 0 0 1 0 0 0 0.81 0"/>
<feBlend mode="normal" in2="shape" result="effect2_innerShadow_1054_1271"/>
</filter>
<filter id="filter2_i_1054_1271" x="5.00012" y="30.5974" width="19.7626" height="13.2811" filterUnits="userSpaceOnUse" color-interpolation-filters="sRGB">
<feFlood flood-opacity="0" result="BackgroundImageFix"/>
<feBlend mode="normal" in="SourceGraphic" in2="BackgroundImageFix" result="shape"/>
<feColorMatrix in="SourceAlpha" type="matrix" values="0 0 0 0 0 0 0 0 0 0 0 0 0 0 0 0 0 0 127 0" result="hardAlpha"/>
<feOffset dy="1.74961"/>
<feGaussianBlur stdDeviation="0.795277"/>
<feComposite in2="hardAlpha" operator="arithmetic" k2="-1" k3="1"/>
<feColorMatrix type="matrix" values="0 0 0 0 1 0 0 0 0 1 0 0 0 0 1 0 0 0 1 0"/>
<feBlend mode="normal" in2="shape" result="effect1_innerShadow_1054_1271"/>
</filter>
<linearGradient id="paint0_linear_1054_1271" x1="28.2468" y1="20.6472" x2="48.1335" y2="5.72314" gradientUnits="userSpaceOnUse">
<stop stop-color="white"/>
<stop offset="1" stop-color="white" stop-opacity="0.58"/>
</linearGradient>
<linearGradient id="paint1_linear_1054_1271" x1="25.98" y1="37.7606" x2="40.0496" y2="13.3153" gradientUnits="userSpaceOnUse">
<stop stop-color="#FF9900"/>
<stop offset="1" stop-color="#FFEE94"/>
</linearGradient>
<linearGradient id="paint2_linear_1054_1271" x1="6.25705" y1="41.2441" x2="26.1438" y2="26.3201" gradientUnits="userSpaceOnUse">
<stop stop-color="white"/>
<stop offset="1" stop-color="white" stop-opacity="0.58"/>
</linearGradient>
</defs>
</svg>
