<svg width="20" height="20" viewBox="0 0 20 20" fill="none" xmlns="http://www.w3.org/2000/svg">
<path fill-rule="evenodd" clip-rule="evenodd" d="M13.2117 14.0955C12.147 14.9648 10.7872 15.4861 9.30556 15.4861C5.89213 15.4861 3.125 12.719 3.125 9.30556C3.125 5.89213 5.89213 3.125 9.30556 3.125C12.719 3.125 15.4861 5.89213 15.4861 9.30556C15.4861 10.7872 14.9648 12.147 14.0955 13.2117L16.6919 15.8081C16.936 16.0521 16.936 16.4479 16.6919 16.6919C16.4479 16.936 16.0521 16.936 15.8081 16.6919L13.2117 14.0955ZM4.375 9.30556C4.375 6.58248 6.58248 4.375 9.30556 4.375C12.0286 4.375 14.2361 6.58248 14.2361 9.30556C14.2361 10.6359 13.7092 11.8432 12.8528 12.7301C12.83 12.7474 12.808 12.7664 12.7872 12.7872C12.7664 12.808 12.7474 12.83 12.7301 12.8528C11.8432 13.7092 10.6359 14.2361 9.30556 14.2361C6.58248 14.2361 4.375 12.0286 4.375 9.30556Z" fill="#2C2C2C"/>
</svg>
