<svg width="24" height="24" viewBox="0 0 24 24" fill="none" xmlns="http://www.w3.org/2000/svg">
<path d="M8.66687 12.083C8.25266 12.083 7.91687 12.4188 7.91687 12.833C7.91687 13.2472 8.25266 13.583 8.66687 13.583H15.3335C15.7478 13.583 16.0835 13.2472 16.0835 12.833C16.0835 12.4188 15.7478 12.083 15.3335 12.083H8.66687Z" fill="#383838"/>
<path d="M7.91687 16.167C7.91687 15.7528 8.25266 15.417 8.66687 15.417H15.3335C15.7478 15.417 16.0835 15.7528 16.0835 16.167C16.0835 16.5812 15.7478 16.917 15.3335 16.917H8.66687C8.25266 16.917 7.91687 16.5812 7.91687 16.167Z" fill="#383838"/>
<path d="M8.66687 8.75C8.25266 8.75 7.91687 9.08579 7.91687 9.5C7.91687 9.91421 8.25266 10.25 8.66687 10.25H10.3335C10.7478 10.25 11.0835 9.91421 11.0835 9.5C11.0835 9.08579 10.7478 8.75 10.3335 8.75H8.66687Z" fill="#383838"/>
<path fill-rule="evenodd" clip-rule="evenodd" d="M5.29132 3.62482C5.74453 3.1716 6.35922 2.91699 7.00016 2.91699H13.6668C13.8763 2.91699 14.0658 3.00287 14.2018 3.14134L19.1925 8.13199C19.331 8.26806 19.4169 8.4575 19.4169 8.66699L19.4169 8.67179L19.4168 8.67494V18.667C19.4168 19.3079 19.1622 19.9226 18.709 20.3758C18.2558 20.829 17.6411 21.0837 17.0002 21.0837H7.00016C6.35922 21.0837 5.74453 20.829 5.29132 20.3758C4.83811 19.9226 4.5835 19.3079 4.5835 18.667V5.33366C4.5835 4.69272 4.83811 4.07803 5.29132 3.62482ZM7.00016 4.41699H12.9169V8.66699C12.9169 9.08121 13.2527 9.41699 13.6669 9.41699H17.9168V18.667C17.9168 18.9101 17.8203 19.1433 17.6483 19.3152C17.4764 19.4871 17.2433 19.5837 17.0002 19.5837H7.00016C6.75705 19.5837 6.52389 19.4871 6.35198 19.3152C6.18007 19.1433 6.0835 18.9101 6.0835 18.667V5.33366C6.0835 5.09054 6.18007 4.85739 6.35198 4.68548C6.52389 4.51357 6.75705 4.41699 7.00016 4.41699ZM14.4169 5.47769L16.8562 7.91699H14.4169V5.47769Z" fill="#383838"/>
</svg>
