<svg width="56" height="59" viewBox="0 0 56 59" fill="none" xmlns="http://www.w3.org/2000/svg">
<g filter="url(#filter0_di_1054_1312)">
<path d="M39.7017 11.8851C39.7685 11.5072 39.8033 11.1184 39.8033 10.7217C39.8033 7.00987 36.7551 4.00085 32.9949 4.00085C30.1995 4.00085 27.7976 5.66384 26.749 8.04226C25.8996 7.31831 24.7973 6.8812 23.5928 6.8812C20.9069 6.8812 18.7296 9.05438 18.7296 11.7351C18.7296 11.8844 18.7363 12.0321 18.7496 12.1779C17.4577 12.8026 16.5682 14.1132 16.5682 15.6289C16.5682 17.75 18.31 19.4694 20.4587 19.4694H38.8307C40.9793 19.4694 42.7212 17.75 42.7212 15.6289C42.7212 13.8035 41.431 12.2755 39.7017 11.8851Z" fill="url(#paint0_linear_1054_1312)" shape-rendering="crispEdges"/>
</g>
<g filter="url(#filter1_f_1054_1312)">
<path d="M29.3026 9.76215C25.3052 15.1895 24.6121 22.5963 28.1383 28.7039C31.6645 34.8115 38.4256 37.9146 45.1244 37.1665C43.7001 39.1004 41.8562 40.7829 39.6341 42.0658C31.1762 46.949 20.4426 44.1922 15.6599 35.9083C10.8772 27.6244 13.8565 16.9504 22.3144 12.0672C24.5365 10.7843 26.9156 10.0287 29.3026 9.76215Z" fill="#FFEE94"/>
</g>
<g filter="url(#filter2_i_1054_1312)">
<path d="M28.9298 12.0497C25.2809 17.0039 24.6482 23.7651 27.867 29.3404C31.0859 34.9156 37.2576 37.7482 43.3725 37.0653C42.0723 38.8306 40.3892 40.3665 38.3608 41.5376C30.6401 45.9951 20.8421 43.4786 16.4763 35.9168C12.1105 28.355 14.8301 18.6114 22.5508 14.1538C24.5791 12.9828 26.7509 12.2931 28.9298 12.0497Z" fill="url(#paint1_linear_1054_1312)"/>
</g>
<g filter="url(#filter4_di_1054_1312)">
<path d="M45.3437 41.5825C45.4268 41.1111 45.4702 40.6262 45.4702 40.1313C45.4702 35.5011 41.6784 31.7476 37.0011 31.7476C33.5239 31.7476 30.5362 33.822 29.2319 36.7889C28.1753 35.8858 26.8042 35.3406 25.3058 35.3406C21.9649 35.3406 19.2565 38.0514 19.2565 41.3955C19.2565 41.5817 19.2649 41.7659 19.2814 41.9479C17.6744 42.727 16.5679 44.3619 16.5679 46.2527C16.5679 48.8985 18.7346 51.0434 21.4074 51.0434H44.2603C46.933 51.0434 49.0997 48.8985 49.0997 46.2527C49.0997 43.9756 47.4949 42.0695 45.3437 41.5825Z" fill="url(#paint2_linear_1054_1312)" shape-rendering="crispEdges"/>
</g>
<defs>
<filter id="filter0_di_1054_1312" x="11.0682" y="0.700855" width="37.153" height="26.4686" filterUnits="userSpaceOnUse" color-interpolation-filters="sRGB">
<feFlood flood-opacity="0" result="BackgroundImageFix"/>
<feColorMatrix in="SourceAlpha" type="matrix" values="0 0 0 0 0 0 0 0 0 0 0 0 0 0 0 0 0 0 127 0" result="hardAlpha"/>
<feOffset dy="2.2"/>
<feGaussianBlur stdDeviation="2.75"/>
<feComposite in2="hardAlpha" operator="out"/>
<feColorMatrix type="matrix" values="0 0 0 0 0.708133 0 0 0 0 0.708133 0 0 0 0 0.708133 0 0 0 0.25 0"/>
<feBlend mode="normal" in2="BackgroundImageFix" result="effect1_dropShadow_1054_1312"/>
<feBlend mode="normal" in="SourceGraphic" in2="effect1_dropShadow_1054_1312" result="shape"/>
<feColorMatrix in="SourceAlpha" type="matrix" values="0 0 0 0 0 0 0 0 0 0 0 0 0 0 0 0 0 0 127 0" result="hardAlpha"/>
<feOffset dy="1.7"/>
<feGaussianBlur stdDeviation="0.75"/>
<feComposite in2="hardAlpha" operator="arithmetic" k2="-1" k3="1"/>
<feColorMatrix type="matrix" values="0 0 0 0 0.797884 0 0 0 0 0.797884 0 0 0 0 0.797884 0 0 0 1 0"/>
<feBlend mode="normal" in2="shape" result="effect2_innerShadow_1054_1312"/>
</filter>
<filter id="filter1_f_1054_1312" x="4.92604" y="1.31026" width="48.6502" height="51.6223" filterUnits="userSpaceOnUse" color-interpolation-filters="sRGB">
<feFlood flood-opacity="0" result="BackgroundImageFix"/>
<feBlend mode="normal" in="SourceGraphic" in2="BackgroundImageFix" result="shape"/>
<feGaussianBlur stdDeviation="4.22594" result="effect1_foregroundBlur_1054_1312"/>
</filter>
<filter id="filter2_i_1054_1312" x="14.3932" y="12.0497" width="28.9794" height="32.3301" filterUnits="userSpaceOnUse" color-interpolation-filters="sRGB">
<feFlood flood-opacity="0" result="BackgroundImageFix"/>
<feBlend mode="normal" in="SourceGraphic" in2="BackgroundImageFix" result="shape"/>
<feColorMatrix in="SourceAlpha" type="matrix" values="0 0 0 0 0 0 0 0 0 0 0 0 0 0 0 0 0 0 127 0" result="hardAlpha"/>
<feOffset dy="0.637878"/>
<feGaussianBlur stdDeviation="0.637878"/>
<feComposite in2="hardAlpha" operator="arithmetic" k2="-1" k3="1"/>
<feColorMatrix type="matrix" values="0 0 0 0 1 0 0 0 0 1 0 0 0 0 1 0 0 0 0.55 0"/>
<feBlend mode="normal" in2="shape" result="effect1_innerShadow_1054_1312"/>
</filter>
<filter id="filter4_di_1054_1312" x="11.068" y="28.4476" width="43.5317" height="30.2958" filterUnits="userSpaceOnUse" color-interpolation-filters="sRGB">
<feFlood flood-opacity="0" result="BackgroundImageFix"/>
<feColorMatrix in="SourceAlpha" type="matrix" values="0 0 0 0 0 0 0 0 0 0 0 0 0 0 0 0 0 0 127 0" result="hardAlpha"/>
<feOffset dy="2.2"/>
<feGaussianBlur stdDeviation="2.75"/>
<feComposite in2="hardAlpha" operator="out"/>
<feColorMatrix type="matrix" values="0 0 0 0 0.708133 0 0 0 0 0.708133 0 0 0 0 0.708133 0 0 0 0.25 0"/>
<feBlend mode="normal" in2="BackgroundImageFix" result="effect1_dropShadow_1054_1312"/>
<feBlend mode="normal" in="SourceGraphic" in2="effect1_dropShadow_1054_1312" result="shape"/>
<feColorMatrix in="SourceAlpha" type="matrix" values="0 0 0 0 0 0 0 0 0 0 0 0 0 0 0 0 0 0 127 0" result="hardAlpha"/>
<feOffset dy="1.7"/>
<feGaussianBlur stdDeviation="0.75"/>
<feComposite in2="hardAlpha" operator="arithmetic" k2="-1" k3="1"/>
<feColorMatrix type="matrix" values="0 0 0 0 0.797884 0 0 0 0 0.797884 0 0 0 0 0.797884 0 0 0 1 0"/>
<feBlend mode="normal" in2="shape" result="effect2_innerShadow_1054_1312"/>
</filter>
<linearGradient id="paint0_linear_1054_1312" x1="18.2316" y1="18.0883" x2="44.5461" y2="-1.66236" gradientUnits="userSpaceOnUse">
<stop stop-color="#959595"/>
<stop offset="1" stop-color="#959595" stop-opacity="0.58"/>
</linearGradient>
<linearGradient id="paint1_linear_1054_1312" x1="29.7244" y1="9.42233" x2="23.9316" y2="44.4978" gradientUnits="userSpaceOnUse">
<stop stop-color="#FFEE94"/>
<stop offset="1" stop-color="#FF9900"/>
</linearGradient>
<linearGradient id="paint2_linear_1054_1312" x1="18.6371" y1="49.3205" x2="51.4363" y2="24.7721" gradientUnits="userSpaceOnUse">
<stop stop-color="#959595"/>
<stop offset="1" stop-color="#959595" stop-opacity="0.58"/>
</linearGradient>
</defs>
</svg>
