<svg width="24" height="24" viewBox="0 0 24 24" fill="none" xmlns="http://www.w3.org/2000/svg">
<path d="M4.50008 8.66667H19.5001C19.7211 8.66667 19.9331 8.57887 20.0893 8.42259C20.2456 8.26631 20.3334 8.05435 20.3334 7.83333C20.3334 7.61232 20.2456 7.40036 20.0893 7.24408C19.9331 7.0878 19.7211 7 19.5001 7H4.50008C4.27907 7 4.06711 7.0878 3.91083 7.24408C3.75455 7.40036 3.66675 7.61232 3.66675 7.83333C3.66675 8.05435 3.75455 8.26631 3.91083 8.42259C4.06711 8.57887 4.27907 8.66667 4.50008 8.66667ZM19.5001 15.3333H4.50008C4.27907 15.3333 4.06711 15.4211 3.91083 15.5774C3.75455 15.7337 3.66675 15.9457 3.66675 16.1667C3.66675 16.3877 3.75455 16.5996 3.91083 16.7559C4.06711 16.9122 4.27907 17 4.50008 17H19.5001C19.7211 17 19.9331 16.9122 20.0893 16.7559C20.2456 16.5996 20.3334 16.3877 20.3334 16.1667C20.3334 15.9457 20.2456 15.7337 20.0893 15.5774C19.9331 15.4211 19.7211 15.3333 19.5001 15.3333ZM19.5001 11.1667H4.50008C4.27907 11.1667 4.06711 11.2545 3.91083 11.4107C3.75455 11.567 3.66675 11.779 3.66675 12C3.66675 12.221 3.75455 12.433 3.91083 12.5893C4.06711 12.7455 4.27907 12.8333 4.50008 12.8333H19.5001C19.7211 12.8333 19.9331 12.7455 20.0893 12.5893C20.2456 12.433 20.3334 12.221 20.3334 12C20.3334 11.779 20.2456 11.567 20.0893 11.4107C19.9331 11.2545 19.7211 11.1667 19.5001 11.1667Z" fill="#2C2C2C"/>
</svg>
