<svg width="20" height="20" viewBox="0 0 20 20" fill="none" xmlns="http://www.w3.org/2000/svg">
<path d="M10.6251 5.83337C10.6251 5.4882 10.3453 5.20837 10.0001 5.20837C9.65494 5.20837 9.37512 5.4882 9.37512 5.83337V10C9.37512 10.2368 9.50887 10.4532 9.72061 10.5591L12.4984 11.948C12.8071 12.1024 13.1825 11.9772 13.3369 11.6685C13.4913 11.3598 13.3661 10.9843 13.0574 10.83L10.6251 9.61377V5.83337Z" fill="#2C2C2C"/>
<path fill-rule="evenodd" clip-rule="evenodd" d="M10.0001 2.43079C5.81962 2.43079 2.43066 5.81974 2.43066 10.0003C2.43066 14.1807 5.81962 17.5697 10.0001 17.5697C14.1806 17.5697 17.5696 14.1807 17.5696 10.0003C17.5696 5.81974 14.1806 2.43079 10.0001 2.43079ZM3.68066 10.0003C3.68066 6.5101 6.50998 3.68079 10.0001 3.68079C13.4902 3.68079 16.3196 6.5101 16.3196 10.0003C16.3196 13.4904 13.4902 16.3197 10.0001 16.3197C6.50998 16.3197 3.68066 13.4904 3.68066 10.0003Z" fill="#2C2C2C"/>
</svg>
