<svg width="20" height="20" viewBox="0 0 20 20" fill="none" xmlns="http://www.w3.org/2000/svg">
<g clip-path="url(#clip0_499_3300)">
<mask id="mask0_499_3300" style="mask-type:luminance" maskUnits="userSpaceOnUse" x="0" y="0" width="20" height="20">
<path d="M20 0H0V20H20V0Z" fill="white"/>
</mask>
<g mask="url(#mask0_499_3300)">
<path d="M6.26782 10.4514C6.61268 10.4517 6.89271 10.7315 6.89282 11.0764C6.89282 11.4214 6.61275 11.7011 6.26782 11.7014H3.60669L6.01099 13.9612L6.02466 13.9749C6.69623 14.6468 7.52815 15.1376 8.44067 15.4016C9.35312 15.6655 10.3179 15.6941 11.2444 15.4846C12.1711 15.275 13.0303 14.8336 13.7405 14.2024C14.4506 13.5712 14.9889 12.77 15.3059 11.8743C15.4211 11.5493 15.7786 11.3788 16.1038 11.4934C16.429 11.6085 16.5995 11.966 16.4846 12.2913C16.0972 13.3861 15.4386 14.3655 14.5706 15.137C13.7026 15.9083 12.6533 16.4471 11.5208 16.7034C10.3881 16.9596 9.20852 16.9245 8.09302 16.6018C6.98356 16.2808 5.97308 15.685 5.15454 14.8704L2.72583 12.5891V15.2434C2.72565 15.5884 2.4458 15.8683 2.10083 15.8684C1.75576 15.8684 1.47601 15.5885 1.47583 15.2434V11.0764C1.47595 10.7314 1.75572 10.4514 2.10083 10.4514H6.26782ZM8.47876 3.29621C9.61109 3.04005 10.7903 3.07438 11.9055 3.3968C13.0146 3.7176 14.0256 4.31327 14.844 5.12727L17.0139 7.16633V4.44465C17.0139 4.09952 17.2938 3.81973 17.6389 3.81965C17.9839 3.81983 18.2639 4.09958 18.2639 4.44465V8.61164C18.2639 8.6235 18.2607 8.63511 18.26 8.6468C18.2585 8.67298 18.257 8.69904 18.2522 8.72492C18.2484 8.74542 18.2413 8.76475 18.2356 8.78449C18.2305 8.80211 18.2267 8.82002 18.22 8.83723C18.2107 8.86105 18.1988 8.88329 18.1868 8.90559C18.1794 8.91929 18.1728 8.93336 18.1643 8.9466C18.1467 8.97415 18.1264 8.99938 18.1047 9.02375C18.1007 9.02825 18.0981 9.03399 18.094 9.0384C18.0932 9.03924 18.0919 9.03952 18.0911 9.04035C18.0684 9.06421 18.043 9.08475 18.0168 9.10481C18.0091 9.11075 18.0023 9.11783 17.9944 9.12336C17.9677 9.14194 17.9389 9.15692 17.9094 9.17121C17.9027 9.17445 17.8967 9.17897 17.8899 9.18196C17.8664 9.19232 17.8416 9.19892 17.8167 9.20637C17.8016 9.21085 17.7871 9.21672 17.7717 9.22004C17.7509 9.22457 17.7298 9.22643 17.7083 9.22883C17.6893 9.23094 17.6706 9.2343 17.6516 9.23469C17.6474 9.23477 17.6431 9.23664 17.6389 9.23664H13.4719C13.1271 9.23656 12.8473 8.95642 12.8469 8.61164C12.8469 8.26651 13.1268 7.98672 13.4719 7.98664H16.0618L13.9885 6.0384C13.9839 6.03405 13.9784 6.02921 13.9739 6.02473C13.3023 5.35303 12.4713 4.86194 11.5588 4.59797C10.6462 4.33408 9.68075 4.30531 8.75415 4.51496C7.82757 4.72469 6.96912 5.16606 6.25903 5.79719C5.549 6.42829 5.00962 7.22882 4.69263 8.12434C4.57748 8.44974 4.22018 8.62035 3.89478 8.5052C3.56998 8.38969 3.39985 8.03244 3.51489 7.70735C3.90231 6.61294 4.56027 5.63392 5.42798 4.86262C6.29593 4.09118 7.34617 3.55253 8.47876 3.29621Z" fill="#2C2C2C"/>
</g>
</g>
<defs>
<clipPath id="clip0_499_3300">
<rect width="20" height="20" fill="white"/>
</clipPath>
</defs>
</svg>
