<svg width="14" height="14" viewBox="0 0 14 14" fill="none" xmlns="http://www.w3.org/2000/svg">
<path d="M10.78 2.625H6.60188C6.58438 2.625 6.56687 2.625 6.55375 2.625C6.09 2.6425 5.66125 2.89187 5.40313 3.27687L5.25 3.5L4.62258 4.80594L3.49125 6.125H2.135C1.57063 6.125 1.09375 6.4925 0.931875 7L1.04826 7.65625L0.875 8.3125V8.75L7 9.1875L13.125 8.75V6.78563C13.125 6.5625 13.1031 6.33938 13.0638 6.125L12.4886 4.90486C12.4886 4.90486 12.1538 3.54375 12.145 3.5175C11.9088 2.97937 11.375 2.625 10.78 2.625Z" fill="#444444"/>
<path d="M12.5169 9.625H1.48313C1.14625 9.625 0.875 9.35375 0.875 9.01688V8.75H13.125V9.01688C13.125 9.35375 12.8538 9.625 12.5169 9.625Z" fill="#444444"/>
<path d="M5.24998 3.5L3.49561 6.125H6.57561C6.80748 6.125 6.99561 5.93688 6.99561 5.705V3.92C6.99561 3.68813 6.80748 3.5 6.57561 3.5H5.24998ZM10.0669 6.125H8.29936C8.06748 6.125 7.87936 5.93688 7.87936 5.705V3.92C7.87936 3.68813 8.06748 3.5 8.29936 3.5H10.0669C10.2987 3.5 10.4869 3.68813 10.4869 3.92V5.705C10.4869 5.93688 10.2987 6.125 10.0669 6.125ZM12.1756 3.59188L12.8931 5.50375C12.9675 5.705 13.0244 5.915 13.0594 6.125H11.7862C11.5544 6.125 11.3662 5.93688 11.3662 5.705V3.955C11.3662 3.70562 11.5719 3.5 11.8212 3.5H12.1362C12.1362 3.5 12.1669 3.56563 12.1756 3.59188Z" fill="#444444"/>
<path d="M1.74563 7.875V7.4375C1.74563 7.19687 1.54875 7 1.30813 7H0.93625C0.8925 7.12687 0.875 7.2625 0.875 7.55563V8.3125H1.30813C1.54875 8.3125 1.74563 8.11563 1.74563 7.875Z" fill="#444444"/>
<path d="M5.25878 9.40625C5.25878 10.2519 4.57322 10.9375 3.72754 10.9375C2.88185 10.9375 2.19629 10.2519 2.19629 9.40625C2.19629 8.56056 2.88185 7.875 3.72754 7.875C4.57322 7.875 5.25878 8.56056 5.25878 9.40625ZM11.8125 9.40625C11.8125 10.2519 11.127 10.9375 10.2813 10.9375C9.43559 10.9375 8.75003 10.2519 8.75003 9.40625C8.75003 8.56056 9.43559 7.875 10.2813 7.875C11.127 7.875 11.8125 8.56056 11.8125 9.40625Z" fill="#444444"/>
<path d="M4.375 9.40625C4.375 9.76868 4.08119 10.0625 3.71875 10.0625C3.35631 10.0625 3.0625 9.76868 3.0625 9.40625C3.0625 9.04382 3.35631 8.75 3.71875 8.75C4.08119 8.75 4.375 9.04382 4.375 9.40625ZM10.9375 9.40625C10.9375 9.76868 10.6437 10.0625 10.2812 10.0625C9.91882 10.0625 9.625 9.76868 9.625 9.40625C9.625 9.04382 9.91882 8.75 10.2812 8.75C10.6437 8.75 10.9375 9.04382 10.9375 9.40625Z" fill="#444444"/>
<path d="M13.1206 7H12.9018C12.53 7 12.2281 7.31062 12.2456 7.68687C12.2631 8.04125 12.5693 8.3125 12.9237 8.3125H13.1206V7Z" fill="#444444"/>
<path d="M4.86938 6.5625H5.04C5.15813 6.5625 5.25 6.46625 5.25 6.3525V5.46C5.25 5.34187 5.15375 5.25 5.04 5.25H4.86938C4.59813 5.25 4.375 5.47312 4.375 5.74437V6.06813C4.375 6.33938 4.59813 6.5625 4.86938 6.5625Z" fill="#444444"/>
</svg>
