<svg width="24" height="24" viewBox="0 0 24 24" fill="none" xmlns="http://www.w3.org/2000/svg">
<path fill-rule="evenodd" clip-rule="evenodd" d="M7.92164 2.91707C8.50662 2.91229 9.07354 3.11987 9.51715 3.50138C9.96178 3.88376 10.2522 4.41477 10.3343 4.99544L10.3348 4.9993L10.3352 5.00234C10.4333 5.74611 10.6152 6.47641 10.8774 7.1793C11.0397 7.61148 11.0747 8.08109 10.9784 8.53257C10.882 8.98445 10.6581 9.39923 10.3333 9.72776L10.3303 9.73074L9.68556 10.3755C10.6878 11.9664 12.034 13.3126 13.6249 14.3148L14.2697 13.6701L14.2726 13.6671C14.6012 13.3422 15.0159 13.1184 15.4678 13.022C15.9193 12.9257 16.389 12.9607 16.8212 13.123C17.524 13.3852 18.2543 13.5671 18.9981 13.6652C19.0003 13.6655 19.0025 13.6658 19.0048 13.6661C19.5917 13.7489 20.1278 14.0445 20.511 14.4968C20.892 14.9465 21.0955 15.5198 21.0833 16.1089V18.599C21.0845 18.935 21.0155 19.2675 20.8809 19.5753C20.7461 19.8837 20.5484 20.1604 20.3004 20.3879C20.0524 20.6154 19.7597 20.7887 19.4409 20.8965C19.1221 21.0043 18.7843 21.0443 18.4491 21.014C18.4466 21.0138 18.4441 21.0136 18.4416 21.0133C18.4396 21.0131 18.4376 21.0129 18.4356 21.0127C15.7558 20.7215 13.1816 19.806 10.9197 18.3398C8.81555 17.0021 7.0314 15.2179 5.69373 13.1137C4.22238 10.8415 3.3067 8.25482 3.02085 5.56294C3.02043 5.55904 3.02005 5.55514 3.0197 5.55124C2.9895 5.2171 3.02921 4.88032 3.1363 4.56237C3.24339 4.24441 3.41551 3.95224 3.6417 3.70445C3.8679 3.45666 4.14321 3.25868 4.45011 3.12312C4.75701 2.98756 5.08877 2.91739 5.42428 2.91707H7.92164ZM8.53909 4.63866C8.37044 4.49361 8.1548 4.41485 7.93237 4.41704C7.92991 4.41706 7.92745 4.41707 7.92499 4.41707H5.42539C5.29823 4.41723 5.1725 4.44385 5.05618 4.49523C4.93977 4.54665 4.83534 4.62174 4.74954 4.71573C4.66374 4.80972 4.59846 4.92055 4.55784 5.04115C4.51776 5.16015 4.50256 5.2861 4.51317 5.41119C4.77506 7.86748 5.61135 10.2277 6.95444 12.301L6.958 12.3065C8.17839 14.227 9.80668 15.8553 11.7272 17.0757C11.7292 17.077 11.7311 17.0782 11.7331 17.0795C13.7966 18.4177 16.1451 19.2538 18.59 19.5206C18.7152 19.5311 18.8413 19.5158 18.9603 19.4755C19.0813 19.4346 19.1923 19.3689 19.2864 19.2826C19.3804 19.1963 19.4554 19.0914 19.5066 18.9744C19.5577 18.8574 19.5838 18.7311 19.5833 18.6035V18.6004V16.1004C19.5833 16.0942 19.5834 16.088 19.5835 16.0818C19.5891 15.857 19.5119 15.638 19.3665 15.4665C19.2218 15.2956 19.0195 15.1837 18.798 15.1518C17.9432 15.0387 17.1039 14.8295 16.2961 14.5281L16.2944 14.5274C16.1304 14.4658 15.9521 14.4524 15.7807 14.489C15.6099 14.5254 15.453 14.6099 15.3286 14.7324L14.272 15.7891C14.0332 16.0278 13.6644 16.0776 13.3709 15.9107C11.1673 14.6577 9.34271 12.8331 8.08968 10.6295C7.9228 10.336 7.97259 9.96714 8.21132 9.72841L9.26796 8.67177C9.39051 8.54736 9.47497 8.39052 9.5114 8.21971C9.54796 8.0483 9.53461 7.87002 9.47295 7.70597L9.47231 7.70428C9.17088 6.89648 8.96166 6.05723 8.84862 5.20248C8.81693 4.98335 8.707 4.78306 8.53909 4.63866Z" fill="#2C2C2C"/>
</svg>
