<svg width="24" height="24" viewBox="0 0 24 24" fill="none" xmlns="http://www.w3.org/2000/svg">
<path fill-rule="evenodd" clip-rule="evenodd" d="M8.29448 3.01581C8.51221 2.8914 8.77771 2.88403 9.002 2.99617L15.3097 6.15L20.7945 3.01581C21.0266 2.88317 21.3118 2.88412 21.543 3.01831C21.7743 3.1525 21.9166 3.39964 21.9166 3.66699V17.0003C21.9166 17.2695 21.7724 17.518 21.5387 17.6515L15.7054 20.9848C15.4876 21.1093 15.2221 21.1166 14.9978 21.0045L8.69019 17.8507L3.20536 20.9848C2.97323 21.1175 2.68804 21.1165 2.45681 20.9823C2.22557 20.8481 2.08325 20.601 2.08325 20.3337V7.00033C2.08325 6.73118 2.22747 6.48268 2.46115 6.34914L8.29448 3.01581ZM3.58325 7.43557L7.9165 4.95942V16.5651L3.58325 19.0413V7.43557ZM14.5833 19.1201L9.4165 16.5368V4.88048L14.5833 7.46385V19.1201ZM16.0833 19.0413L20.4166 16.5651V4.95938L16.0833 7.43557V19.0413Z" fill="#2C2C2C"/>
</svg>
