<svg width="20" height="20" viewBox="0 0 20 20" fill="none" xmlns="http://www.w3.org/2000/svg">
<path fill-rule="evenodd" clip-rule="evenodd" d="M1.73608 5.8331C1.73608 4.72086 2.63773 3.81921 3.74997 3.81921H16.25C17.3622 3.81921 18.2639 4.72086 18.2639 5.8331V14.1664C18.2639 15.2786 17.3622 16.1803 16.25 16.1803H3.74997C2.63773 16.1803 1.73608 15.2786 1.73608 14.1664V5.8331ZM2.98608 5.8331C2.98608 5.41122 3.32809 5.06921 3.74997 5.06921H16.25C16.6719 5.06921 17.0139 5.41122 17.0139 5.8331V7.98588H2.98608V5.8331ZM17.0139 9.23588V14.1664C17.0139 14.5883 16.6719 14.9303 16.25 14.9303H3.74997C3.32809 14.9303 2.98608 14.5883 2.98608 14.1664V9.23588H17.0139Z" fill="#2C2C2C"/>
</svg>
