<svg width="14" height="14" viewBox="0 0 14 14" fill="none" xmlns="http://www.w3.org/2000/svg">
<path d="M5.98063 0.875293C5.74875 0.875293 5.565 1.05904 5.565 1.28654V2.90529C5.565 3.02342 5.46875 3.11967 5.35062 3.11967C5.2325 3.11967 5.13625 3.02342 5.13625 2.90529V1.30404C5.13625 1.07654 4.96125 0.879668 4.73812 0.875293C4.50625 0.866543 4.31375 1.05467 4.31375 1.28654V2.90529C4.31375 3.02342 4.2175 3.11967 4.09937 3.11967C3.98125 3.11967 3.885 3.02342 3.885 2.90529V1.30404C3.885 1.07654 3.71 0.879668 3.48687 0.875293C3.255 0.866543 3.0625 1.05467 3.0625 1.28654V4.05154C3.0625 4.59379 3.32036 5.07487 3.72005 5.3788C4.09063 5.64961 4.09063 6.52343 4.09063 6.52343V12.5609C4.09063 12.8716 4.34438 13.1253 4.655 13.1253H4.795C5.10563 13.1253 5.35938 12.8716 5.35938 12.5609V6.51906C5.35938 6.51906 5.35938 5.62818 5.72416 5.3788C6.12714 5.07513 6.3875 4.59204 6.3875 4.04717V1.28654C6.39188 1.05904 6.20813 0.875293 5.98063 0.875293Z" fill="#FF6C11"/>
<path d="M10.0887 0.875366C10.6312 0.875366 11.0687 1.31287 11.0687 1.85537V7.82724L11.0643 7.82566V12.5566C11.0643 12.8672 10.8106 13.1209 10.5 13.1209H10.36C10.0493 13.1209 9.79558 12.8672 9.79558 12.5566V7.36624C9.11977 7.05982 8.67995 6.38366 8.67995 5.63099V2.28412C8.67558 1.50537 9.30995 0.875366 10.0887 0.875366Z" fill="#FF6C11"/>
</svg>
