<svg width="28" height="28" viewBox="0 0 28 28" fill="none" xmlns="http://www.w3.org/2000/svg">
<path fill-rule="evenodd" clip-rule="evenodd" d="M14 10.2083C11.9059 10.2083 10.2083 11.9059 10.2083 14C10.2083 16.0941 11.9059 17.7917 14 17.7917C16.0941 17.7917 17.7917 16.0941 17.7917 14C17.7917 11.9059 16.0941 10.2083 14 10.2083ZM11.9583 14C11.9583 12.8724 12.8724 11.9583 14 11.9583C15.1276 11.9583 16.0417 12.8724 16.0417 14C16.0417 15.1276 15.1276 16.0417 14 16.0417C12.8724 16.0417 11.9583 15.1276 11.9583 14Z" fill="#2C2C2C"/>
<path fill-rule="evenodd" clip-rule="evenodd" d="M4.67855 11.3165C4.86516 11.2778 5.05655 11.258 5.24999 11.258H5.32527C5.46862 11.253 5.6074 11.2058 5.72416 11.1223C5.84317 11.0372 5.93382 10.9182 5.98432 10.7809C5.99069 10.7636 5.99759 10.7465 6.00504 10.7297C6.06386 10.5964 6.08141 10.4485 6.05542 10.3052C6.02966 10.1631 5.9623 10.0319 5.86192 9.92816L5.80766 9.87389C5.54568 9.61212 5.33784 9.30129 5.19601 8.95916C5.05413 8.61689 4.9811 8.25 4.9811 7.87948C4.9811 7.50896 5.05413 7.14208 5.19601 6.7998C5.33784 6.45768 5.54568 6.14685 5.80766 5.88507C6.06944 5.62309 6.38027 5.41525 6.72239 5.27342C7.06467 5.13154 7.43155 5.05851 7.80207 5.05851C8.17259 5.05851 8.53947 5.13154 8.88175 5.27342C9.22387 5.41525 9.5347 5.62309 9.79648 5.88507L9.85075 5.93933C9.95446 6.03971 10.0857 6.10707 10.2277 6.13283C10.3711 6.15882 10.519 6.14127 10.6522 6.08245C10.7138 6.05528 10.7781 6.03538 10.8439 6.02302C10.9293 5.96843 11.0029 5.89638 11.0593 5.81111C11.1376 5.69294 11.1797 5.55454 11.1805 5.41284V5.24962C11.1805 4.50186 11.4776 3.78472 12.0063 3.25597C12.5351 2.72722 13.2522 2.43018 14 2.43018C14.7477 2.43018 15.4649 2.72722 15.9936 3.25597C16.5224 3.78472 16.8194 4.50186 16.8194 5.24962V5.33506C16.8203 5.47677 16.8624 5.61517 16.9406 5.73333C17.0192 5.85189 17.1306 5.94491 17.2613 6.00093C17.2642 6.00216 17.2671 6.00341 17.2699 6.00467C17.4032 6.0635 17.5511 6.08105 17.6945 6.05505C17.8365 6.02929 17.9677 5.96192 18.0715 5.86154L18.1254 5.80763C18.3872 5.54549 18.6982 5.33753 19.0404 5.19565C19.3827 5.05376 19.7496 4.98073 20.1201 4.98073C20.4906 4.98073 20.8575 5.05376 21.1998 5.19565C21.5418 5.33741 21.8525 5.54513 22.1142 5.80695C22.3763 6.0688 22.5843 6.37975 22.7262 6.72202C22.8681 7.0643 22.9411 7.43118 22.9411 7.8017C22.9411 8.17222 22.8681 8.53911 22.7262 8.88138C22.5843 9.22366 22.3763 9.53461 22.1142 9.79646L22.0602 9.85041C21.9599 9.95412 21.8925 10.0853 21.8668 10.2274C21.8408 10.3707 21.8583 10.5186 21.9172 10.6519C21.9443 10.7134 21.9642 10.7777 21.9766 10.8435C22.0312 10.929 22.1032 11.0025 22.1885 11.059C22.3067 11.1372 22.4451 11.1793 22.5868 11.1802H22.75C23.4978 11.1802 24.2149 11.4772 24.7436 12.006C25.2724 12.5347 25.5694 13.2519 25.5694 13.9996C25.5694 14.7474 25.2724 15.4645 24.7436 15.9933C24.2149 16.522 23.4978 16.8191 22.75 16.8191H22.6645C22.5228 16.8199 22.3844 16.862 22.2663 16.9403C22.1477 17.0188 22.0547 17.1303 21.9987 17.261L21.9969 17.2651L21.9949 17.2696C21.9361 17.4029 21.9186 17.5507 21.9446 17.6941C21.9703 17.8362 22.0377 17.9674 22.1381 18.0711L22.192 18.125C22.4541 18.3869 22.6621 18.6978 22.804 19.0401C22.9458 19.3824 23.0189 19.7492 23.0189 20.1198C23.0189 20.4903 22.9458 20.8572 22.804 21.1994C22.6622 21.5414 22.4545 21.8521 22.1927 22.1138C21.9308 22.376 21.6199 22.5839 21.2776 22.7258C20.9353 22.8677 20.5684 22.9407 20.1979 22.9407C19.8274 22.9407 19.4605 22.8677 19.1182 22.7258C18.7759 22.5839 18.465 22.376 18.2031 22.1138L18.1492 22.0599C18.0455 21.9595 17.9143 21.8922 17.7722 21.8664C17.6289 21.8404 17.481 21.858 17.3477 21.9168C17.3449 21.9181 17.342 21.9193 17.3391 21.9205C17.2084 21.9766 17.0969 22.0696 17.0184 22.1881C16.9402 22.3063 16.8981 22.4447 16.8972 22.5864V22.7496C16.8972 23.4974 16.6002 24.2145 16.0714 24.7433C15.5427 25.272 14.8255 25.5691 14.0778 25.5691C13.33 25.5691 12.6129 25.272 12.0841 24.7433C11.5554 24.2145 11.2583 23.4974 11.2583 22.7496V22.6743C11.2533 22.531 11.2062 22.3922 11.1227 22.2754C11.0376 22.1564 10.9186 22.0658 10.7813 22.0153C10.764 22.0089 10.7469 22.002 10.73 21.9946C10.5967 21.9357 10.4489 21.9182 10.3055 21.9442C10.1635 21.9699 10.0323 22.0373 9.92855 22.1377L9.8746 22.1916C9.61282 22.4536 9.30165 22.6618 8.95953 22.8036C8.61725 22.9455 8.25037 23.0185 7.87985 23.0185C7.50933 23.0185 7.14244 22.9455 6.80017 22.8036C6.4582 22.6618 6.14749 22.4541 5.88578 22.1923C5.62364 21.9304 5.41568 21.6195 5.27379 21.2772C5.1319 20.9349 5.05887 20.5681 5.05887 20.1975C5.05887 19.827 5.1319 19.4601 5.27379 19.1179C5.41562 18.7757 5.62346 18.4649 5.88544 18.2031L5.93968 18.1489C6.04007 18.0452 6.10743 17.9139 6.1332 17.7719C6.15919 17.6285 6.14164 17.4806 6.08281 17.3474C6.08155 17.3445 6.0803 17.3416 6.07907 17.3388C6.02305 17.208 5.93004 17.0966 5.81147 17.0181C5.69331 16.9398 5.55491 16.8977 5.41321 16.8968H5.24999C4.50222 16.8968 3.78509 16.5998 3.25634 16.071C2.72759 15.5423 2.43054 14.8252 2.43054 14.0774C2.43054 13.3296 2.72759 12.6125 3.25634 12.0837C3.6483 11.6918 4.1438 11.4271 4.67855 11.3165ZM13.2438 4.49341C13.4443 4.29285 13.7164 4.18018 14 4.18018C14.2836 4.18018 14.5556 4.29285 14.7562 4.49341C14.9568 4.69397 15.0694 4.96599 15.0694 5.24962V5.33712V5.34061C15.0714 5.8241 15.2146 6.29648 15.4816 6.69959C15.7477 7.10141 16.1251 7.41693 16.5677 7.60759C17.0197 7.80607 17.5208 7.86507 18.0067 7.77698C18.4941 7.6886 18.9438 7.45623 19.298 7.10985L19.3009 7.10692L19.3048 7.10306L19.3635 7.04438C19.4628 6.94495 19.5808 6.86607 19.7106 6.81225C19.8404 6.75843 19.9796 6.73073 20.1201 6.73073C20.2607 6.73073 20.3998 6.75843 20.5297 6.81225C20.6595 6.86607 20.7774 6.94495 20.8768 7.04438C20.9763 7.14371 21.0558 7.26234 21.1096 7.39217C21.1634 7.522 21.1911 7.66116 21.1911 7.8017C21.1911 7.94224 21.1634 8.08141 21.1096 8.21124C21.0558 8.34106 20.9769 8.45901 20.8774 8.55834L20.8188 8.61702C20.8165 8.61929 20.8142 8.62158 20.812 8.62387C20.4656 8.97799 20.2332 9.42775 20.1449 9.91516C20.0675 10.3417 20.1035 10.78 20.2478 11.1865C20.2577 11.2694 20.2794 11.3506 20.3124 11.4276C20.5029 11.872 20.8191 12.2511 21.2222 12.518C21.6253 12.785 22.0977 12.9282 22.5812 12.9302H22.5847H22.75C23.0336 12.9302 23.3056 13.0428 23.5062 13.2434C23.7068 13.444 23.8194 13.716 23.8194 13.9996C23.8194 14.2833 23.7068 14.5553 23.5062 14.7558C23.3056 14.9564 23.0336 15.0691 22.75 15.0691H22.6625H22.659C22.1755 15.071 21.7031 15.2143 21.3 15.4812C20.8982 15.7474 20.5826 16.1248 20.392 16.5674C20.1935 17.0195 20.1345 17.5205 20.2226 18.0063C20.311 18.4937 20.5434 18.9435 20.8898 19.2976C20.892 19.2999 20.8943 19.3022 20.8966 19.3045L20.9552 19.3631C21.0547 19.4624 21.1335 19.5804 21.1874 19.7102C21.2412 19.8401 21.2689 19.9792 21.2689 20.1198C21.2689 20.2603 21.2412 20.3995 21.1874 20.5293C21.1335 20.6591 21.0547 20.7771 20.9552 20.8764C20.8559 20.9758 20.7373 21.0554 20.6074 21.1092C20.4776 21.163 20.3384 21.1907 20.1979 21.1907C20.0574 21.1907 19.9182 21.163 19.7884 21.1092C19.6585 21.0554 19.5406 20.9765 19.4413 20.8771L19.3826 20.8184C19.3803 20.8161 19.378 20.8139 19.3757 20.8116C19.0216 20.4652 18.5719 20.2329 18.0844 20.1445C17.5985 20.0564 17.0974 20.1154 16.6454 20.3139C16.2028 20.5046 15.8255 20.8201 15.5594 21.2219C15.2924 21.625 15.1491 22.0974 15.1472 22.5809V22.5843V22.7496C15.1472 23.0333 15.0345 23.3053 14.834 23.5058C14.6334 23.7064 14.3614 23.8191 14.0778 23.8191C13.7941 23.8191 13.5221 23.7064 13.3216 23.5058C13.121 23.3053 13.0083 23.0333 13.0083 22.7496V22.6621C13.0083 22.6586 13.0083 22.655 13.0083 22.6515C13.0082 22.6482 13.0082 22.6449 13.0081 22.6417C12.9964 22.1443 12.8355 21.662 12.5461 21.2574C12.262 20.8603 11.8672 20.556 11.4112 20.3825C10.9647 20.1914 10.4716 20.1355 9.99331 20.2223C9.5059 20.3106 9.05613 20.543 8.70202 20.8894L8.69962 20.8917L8.69515 20.8962L8.63648 20.9549C8.53716 21.0543 8.41921 21.1332 8.28938 21.187C8.15955 21.2408 8.02039 21.2685 7.87985 21.2685C7.73931 21.2685 7.60014 21.2408 7.47031 21.187C7.34048 21.1332 7.22254 21.0543 7.12322 20.9549C7.02378 20.8555 6.94421 20.7369 6.89039 20.6071C6.83657 20.4772 6.80887 20.3381 6.80887 20.1975C6.80887 20.057 6.83657 19.9178 6.89039 19.788C6.94421 19.6582 7.02309 19.5402 7.12253 19.4409L7.1812 19.3822C7.18348 19.38 7.18574 19.3777 7.18799 19.3754C7.53438 19.0213 7.76674 18.5715 7.85512 18.0841C7.94322 17.5982 7.88421 17.0971 7.68571 16.645C7.49505 16.2025 7.17954 15.8251 6.77774 15.559C6.43934 15.3349 6.05214 15.198 5.65053 15.1586L5.10882 13.0173C5.15537 13.0111 5.20251 13.008 5.24999 13.008H5.33749C5.34431 13.008 5.35113 13.0079 5.35795 13.0077C5.85528 12.9961 6.3376 12.8351 6.74222 12.5457C7.13935 12.2617 7.44359 11.8668 7.61707 11.4109C7.80823 10.9643 7.86407 10.4713 7.77734 9.99294C7.68896 9.50553 7.4566 9.05577 7.11021 8.70165C7.10796 8.69935 7.1057 8.69707 7.10343 8.69479L7.04475 8.63611C6.94532 8.53679 6.86643 8.41884 6.81262 8.28901C6.7588 8.15919 6.7311 8.02002 6.7311 7.87948C6.7311 7.73894 6.7588 7.59978 6.81262 7.46995C6.86643 7.34012 6.94532 7.22217 7.04475 7.12285C7.14407 7.02342 7.26271 6.94385 7.39254 6.89003C7.52236 6.83621 7.66153 6.80851 7.80207 6.80851C7.94261 6.80851 8.08177 6.83621 8.2116 6.89003C8.34143 6.94385 8.45938 7.02273 8.5587 7.12216L8.61738 7.18084L8.62035 7.18379L8.62424 7.18762C8.97835 7.53401 9.42812 7.76638 9.91553 7.85475C10.3421 7.93209 10.7803 7.89606 11.1869 7.7518C11.2698 7.74193 11.351 7.72022 11.428 7.6872C11.8724 7.49674 12.2514 7.18048 12.5184 6.77737C12.7853 6.37426 12.9286 5.90188 12.9305 5.41839V5.4149V5.24962C12.9305 4.96599 13.0432 4.69397 13.2438 4.49341ZM4.67855 11.3165L5.10882 13.0173C4.8773 13.0481 4.66077 13.1542 4.49378 13.3212C4.29322 13.5217 4.18054 13.7938 4.18054 14.0774C4.18054 14.361 4.29322 14.633 4.49378 14.8336C4.69434 15.0342 4.96635 15.1468 5.24999 15.1468H5.41526H5.41875C5.49638 15.1472 5.57372 15.1511 5.65053 15.1586" fill="#2C2C2C"/>
</svg>
