<svg width="14" height="14" viewBox="0 0 14 14" fill="none" xmlns="http://www.w3.org/2000/svg">
<g clip-path="url(#clip0_499_3123)">
<mask id="mask0_499_3123" style="mask-type:luminance" maskUnits="userSpaceOnUse" x="0" y="0" width="14" height="14">
<path d="M14 0H0V14H14V0Z" fill="white"/>
</mask>
<g mask="url(#mask0_499_3123)">
<path d="M6.76869 4.62474C4.72819 4.62474 3.02544 5.46054 2.62329 6.57319C3.36774 7.41389 4.96444 8.01204 6.76869 8.01204C8.57294 8.01204 10.17 7.41389 10.9141 6.57319C10.8913 6.51089 10.863 6.44964 10.8322 6.38874C10.3173 5.36954 8.69474 4.62474 6.76869 4.62474Z" fill="white"/>
<path d="M10.6553 5.31908C10.6553 5.43257 10.6326 5.54282 10.6001 5.65307C10.5385 5.87358 10.4153 6.08435 10.2402 6.28215C10.2208 6.22379 10.1948 6.16866 10.1656 6.11353C9.68895 5.16667 8.18435 4.47922 6.40088 4.47922C4.5104 4.47922 2.93121 5.25098 2.5583 6.28215C2.29889 5.98707 2.14648 5.65956 2.14648 5.31908C2.14648 4.07389 4.09533 3.02002 6.40088 3.02002C8.70642 3.02002 10.6553 4.07389 10.6553 5.31908Z" fill="#FF6C11"/>
<path d="M11.0468 5.66878V5.38342L11.0403 5.40288C11.0305 5.55853 11.0046 5.71094 10.9527 5.8601C10.9235 5.94765 10.8846 6.0352 10.8392 6.11951C10.2491 7.21554 8.48504 8.00999 6.4 8.00999C4.31496 8.00999 2.5477 7.21554 1.96077 6.11951C1.91538 6.0352 1.87646 5.94765 1.84404 5.8601C1.79215 5.71094 1.76621 5.55853 1.75649 5.40288L1.75 5.38342V6.92694C1.75 7.4555 1.84404 7.96135 2.00617 8.43803C2.27531 9.21627 2.74226 9.90047 3.35188 10.4291C4.16904 11.1392 5.23264 11.5737 6.4 11.5737C7.56736 11.5737 8.63096 11.1392 9.44812 10.4291C9.84048 10.0853 10.1777 9.67673 10.4371 9.21951H10.8133C11.0695 9.21951 11.3127 9.16439 11.5332 9.06711C12.159 8.79148 12.6 8.16564 12.6 7.43604C12.6 6.53133 11.9223 5.78552 11.0468 5.66878ZM10.8133 8.44451H10.7873C10.7895 8.44235 10.7906 8.44019 10.7906 8.43803C10.956 7.96135 11.0468 7.4555 11.0468 6.92694V6.45999C11.491 6.56376 11.8218 6.96261 11.8218 7.43604C11.8218 7.99378 11.371 8.44451 10.8133 8.44451Z" fill="#FF6C11"/>
<path d="M10.7914 8.43896C10.7904 8.44155 10.7895 8.44382 10.7888 8.44641H10.8034C10.7995 8.44382 10.795 8.44155 10.7914 8.43896Z" fill="#E5E8EB"/>
<path d="M11.0241 5.04404C10.9916 4.86245 10.93 4.68734 10.8392 4.51872C10.7484 4.35011 10.6285 4.18797 10.4858 4.03557C10.4144 3.95774 10.3366 3.8864 10.2555 3.81182C10.0869 3.66914 9.89561 3.53619 9.68483 3.41621C8.84498 2.92657 7.6841 2.625 6.4 2.625C5.1159 2.625 3.95178 2.92657 3.11192 3.41621C2.90115 3.53619 2.71308 3.66914 2.54446 3.81182C2.46015 3.8864 2.38232 3.95774 2.31098 4.03557C2.16831 4.18797 2.05157 4.35011 1.96077 4.51872C1.86998 4.68734 1.80513 4.86245 1.77594 5.04404C1.75973 5.13483 1.75 5.22563 1.75 5.31967C1.75 5.34885 1.75649 5.37479 1.75649 5.40398C1.76621 5.55962 1.79215 5.71203 1.84404 5.86119C1.87646 5.94875 1.91538 6.0363 1.96077 6.12061C2.5477 7.21663 4.31172 8.01109 6.4 8.01109C8.48829 8.01109 10.2491 7.21663 10.8392 6.12061C10.8846 6.0363 10.9235 5.94875 10.9527 5.86119C11.0046 5.71203 11.0305 5.55962 11.0403 5.40398C11.0435 5.37479 11.0468 5.34885 11.0468 5.31967C11.0468 5.22563 11.0403 5.13483 11.0241 5.04404ZM10.5993 5.65366C10.5377 5.87416 10.4144 6.08494 10.2393 6.28274C9.55188 7.06098 8.06998 7.61548 6.4 7.61548C4.73002 7.61548 3.24812 7.06098 2.55743 6.28274C2.29801 5.98766 2.14561 5.66015 2.14561 5.31967C2.14561 4.07448 4.09446 3.02061 6.4 3.02061C8.70555 3.02061 10.6544 4.07448 10.6544 5.31967C10.6544 5.43316 10.6317 5.54341 10.5993 5.65366Z" fill="#FF6C11"/>
</g>
</g>
<defs>
<clipPath id="clip0_499_3123">
<rect width="14" height="14" fill="white"/>
</clipPath>
</defs>
</svg>
