<svg width="14" height="14" viewBox="0 0 14 14" fill="none" xmlns="http://www.w3.org/2000/svg">
<g clip-path="url(#clip0_499_3106)">
<mask id="mask0_499_3106" style="mask-type:luminance" maskUnits="userSpaceOnUse" x="0" y="0" width="14" height="14">
<path d="M14 0H0V14H14V0Z" fill="white"/>
</mask>
<g mask="url(#mask0_499_3106)">
<path d="M6.17789 12.6329L5.58788 10.2028C6.34834 9.75975 7.05635 9.23339 7.69882 8.62369L9.19848 7.19972L10.7046 6.52137L11.5548 4.96239L12.5588 4.00916C13.2974 3.30732 13.3149 2.13614 12.6025 1.41238C11.8857 0.68862 10.7188 0.697396 10.0108 1.42993L8.90759 2.57779L7.11406 3.33311L6.66024 4.9161L5.36497 6.26377C4.75313 6.90419 4.21555 7.6104 3.76976 8.36924L1.35289 7.75517C1.2174 7.72008 1.07755 7.75954 0.977025 7.85606C0.784726 8.04904 0.889621 8.29032 1.08192 8.49209L5.43493 12.9048C5.64904 13.1329 5.87632 13.2075 6.06865 13.0145C6.17352 12.9092 6.21285 12.7689 6.17789 12.6329Z" fill="#444444"/>
<path d="M12.1594 2.52432L11.4858 1.84541C11.3622 1.7189 11.1575 1.71891 11.034 1.8412C10.9061 1.96349 10.9061 2.1659 11.0297 2.28818L11.7032 2.96709C11.8269 3.09359 12.0315 3.09359 12.1551 2.97131C12.2787 2.84902 12.283 2.65083 12.1594 2.52432Z" fill="#444444"/>
<path d="M6.65682 4.91964L8.91699 2.56799L3.65149 1.33481C3.45024 1.28669 3.23586 1.31731 3.05211 1.41794C2.48336 1.73731 2.48336 2.55107 3.04773 2.87044L6.65682 4.91964ZM11.5628 4.95482L9.19122 7.20663L11.1387 10.8063C11.445 11.3794 12.2631 11.3925 12.5912 10.8325C12.6962 10.6531 12.7312 10.4431 12.6875 10.2375L11.5628 4.95482ZM3.56844 9.76286C3.75208 9.57836 4.05258 9.57836 4.23621 9.76701C4.42404 9.95151 4.41984 10.2534 4.23204 10.4378L2.99248 11.6746C2.80885 11.8591 2.50835 11.8591 2.32471 11.6705C2.14107 11.486 2.14107 11.1841 2.32889 10.9997L3.56844 9.76286Z" fill="#444444"/>
</g>
</g>
<defs>
<clipPath id="clip0_499_3106">
<rect width="14" height="14" fill="white"/>
</clipPath>
</defs>
</svg>
