<svg width="24" height="24" viewBox="0 0 24 24" fill="none" xmlns="http://www.w3.org/2000/svg">
<path d="M10.3332 10.417C10.7474 10.417 11.0832 10.7528 11.0832 11.167V16.167C11.0832 16.5812 10.7474 16.917 10.3332 16.917C9.91904 16.917 9.58325 16.5812 9.58325 16.167V11.167C9.58325 10.7528 9.91904 10.417 10.3332 10.417Z" fill="#2C2C2C"/>
<path d="M14.4167 11.167C14.4167 10.7528 14.0809 10.417 13.6667 10.417C13.2525 10.417 12.9167 10.7528 12.9167 11.167V16.167C12.9167 16.5812 13.2525 16.917 13.6667 16.917C14.0809 16.917 14.4167 16.5812 14.4167 16.167V11.167Z" fill="#2C2C2C"/>
<path fill-rule="evenodd" clip-rule="evenodd" d="M7.91669 6.25V5.33366C7.91669 4.69272 8.1713 4.07803 8.62451 3.62482C9.07773 3.1716 9.69241 2.91699 10.3334 2.91699H13.6667C14.3076 2.91699 14.9223 3.1716 15.3755 3.62482C15.8287 4.07803 16.0834 4.69272 16.0834 5.33366V6.25H19.5C19.9142 6.25 20.25 6.58579 20.25 7C20.25 7.41421 19.9142 7.75 19.5 7.75H18.5834V18.667C18.5834 19.3079 18.3287 19.9226 17.8755 20.3758C17.4223 20.829 16.8076 21.0837 16.1667 21.0837H7.83335C7.19241 21.0837 6.57773 20.829 6.12451 20.3758C5.6713 19.9226 5.41669 19.3079 5.41669 18.667V7.75H4.5C4.08579 7.75 3.75 7.41421 3.75 7C3.75 6.58579 4.08579 6.25 4.5 6.25H7.91669ZM9.68517 4.68548C9.85708 4.51357 10.0902 4.41699 10.3334 4.41699H13.6667C13.9098 4.41699 14.143 4.51357 14.3149 4.68548C14.4868 4.85739 14.5834 5.09054 14.5834 5.33366V6.25H9.41669V5.33366C9.41669 5.09054 9.51326 4.85739 9.68517 4.68548ZM8.64438 7.75C8.65179 7.75022 8.65923 7.75033 8.66669 7.75033C8.67415 7.75033 8.68159 7.75022 8.68899 7.75H15.311C15.3185 7.75022 15.3259 7.75033 15.3334 7.75033C15.3408 7.75033 15.3483 7.75022 15.3557 7.75H17.0834V18.667C17.0834 18.9101 16.9868 19.1433 16.8149 19.3152C16.643 19.4871 16.4098 19.5837 16.1667 19.5837H7.83335C7.59024 19.5837 7.35708 19.4871 7.18517 19.3152C7.01326 19.1433 6.91669 18.9101 6.91669 18.667V7.75H8.64438Z" fill="#2C2C2C"/>
</svg>
