<svg width="24" height="24" viewBox="0 0 24 24" fill="none" xmlns="http://www.w3.org/2000/svg">
<path fill-rule="evenodd" clip-rule="evenodd" d="M10.3334 3.75C9.69247 3.75 9.07779 4.00461 8.62457 4.45783C8.17136 4.91104 7.91675 5.52573 7.91675 6.16667V7.08301H5.33341C3.99873 7.08301 2.91675 8.16499 2.91675 9.49967V17.833C2.91675 19.1677 3.99873 20.2497 5.33341 20.2497H8.64445C8.65186 20.2499 8.65929 20.25 8.66675 20.25C8.67421 20.25 8.68164 20.2499 8.68904 20.2497H15.3111C15.3185 20.2499 15.326 20.25 15.3334 20.25C15.3409 20.25 15.3483 20.2499 15.3557 20.2497H18.6667C20.0014 20.2497 21.0834 19.1677 21.0834 17.833V9.49967C21.0834 8.16499 20.0014 7.08301 18.6667 7.08301H16.0834V6.16667C16.0834 5.52573 15.8288 4.91104 15.3756 4.45783C14.9224 4.00461 14.3077 3.75 13.6667 3.75H10.3334ZM14.5834 7.08301V6.16667C14.5834 5.92355 14.4868 5.69039 14.3149 5.51849C14.143 5.34658 13.9099 5.25 13.6667 5.25H10.3334C10.0903 5.25 9.85714 5.34658 9.68523 5.51849C9.51333 5.69039 9.41675 5.92355 9.41675 6.16667V7.08301H14.5834ZM9.41675 8.58301H14.5834V18.7497H9.41675V8.58301ZM7.91675 8.58301H5.33341C4.82715 8.58301 4.41675 8.99341 4.41675 9.49967V17.833C4.41675 18.3393 4.82715 18.7497 5.33341 18.7497H7.91675V8.58301ZM16.0834 18.7497V8.58301H18.6667C19.173 8.58301 19.5834 8.99341 19.5834 9.49967V17.833C19.5834 18.3393 19.173 18.7497 18.6667 18.7497H16.0834Z" fill="#383838"/>
</svg>
