<svg width="20" height="20" viewBox="0 0 20 20" fill="none" xmlns="http://www.w3.org/2000/svg">
<g clip-path="url(#clip0_499_3252)">
<mask id="mask0_499_3252" style="mask-type:luminance" maskUnits="userSpaceOnUse" x="0" y="0" width="20" height="20">
<path d="M20 0H0V20H20V0Z" fill="white"/>
</mask>
<g mask="url(#mask0_499_3252)">
<path d="M3.33325 13.3333C3.33325 14.0667 3.65825 14.725 4.16659 15.1833V16.6667C4.16659 17.125 4.54159 17.5 4.99992 17.5H5.83325C6.29159 17.5 6.66659 17.125 6.66659 16.6667V15.8333H13.3333V16.6667C13.3333 17.125 13.7083 17.5 14.1666 17.5H14.9999C15.4583 17.5 15.8333 17.125 15.8333 16.6667V15.1833C16.3416 14.725 16.6666 14.0667 16.6666 13.3333V4.99997C16.6666 2.0833 13.6833 1.66663 9.99992 1.66663C6.31659 1.66663 3.33325 2.0833 3.33325 4.99997V13.3333ZM6.24992 14.1667C5.55825 14.1667 4.99992 13.6083 4.99992 12.9167C4.99992 12.225 5.55825 11.6667 6.24992 11.6667C6.94159 11.6667 7.49992 12.225 7.49992 12.9167C7.49992 13.6083 6.94159 14.1667 6.24992 14.1667ZM13.7499 14.1667C13.0583 14.1667 12.4999 13.6083 12.4999 12.9167C12.4999 12.225 13.0583 11.6667 13.7499 11.6667C14.4416 11.6667 14.9999 12.225 14.9999 12.9167C14.9999 13.6083 14.4416 14.1667 13.7499 14.1667ZM14.9999 9.16663H4.99992V4.99997H14.9999V9.16663Z" fill="#2C2C2C"/>
</g>
</g>
<defs>
<clipPath id="clip0_499_3252">
<rect width="20" height="20" fill="white"/>
</clipPath>
</defs>
</svg>
