<svg width="20" height="20" viewBox="0 0 20 20" fill="none" xmlns="http://www.w3.org/2000/svg">
<g clip-path="url(#clip0_499_3258)">
<mask id="mask0_499_3258" style="mask-type:luminance" maskUnits="userSpaceOnUse" x="0" y="0" width="20" height="20">
<path d="M20 0H0V20H20V0Z" fill="white"/>
</mask>
<g mask="url(#mask0_499_3258)">
<path d="M15.7667 5.0083C15.6 4.51663 15.1333 4.16663 14.5833 4.16663H5.41667C4.86667 4.16663 4.40833 4.51663 4.23333 5.0083L2.5 9.99996V16.6667C2.5 17.125 2.875 17.5 3.33333 17.5H4.16667C4.625 17.5 5 17.125 5 16.6667V15.8333H15V16.6667C15 17.125 15.375 17.5 15.8333 17.5H16.6667C17.125 17.5 17.5 17.125 17.5 16.6667V9.99996L15.7667 5.0083ZM5.41667 13.3333C4.725 13.3333 4.16667 12.775 4.16667 12.0833C4.16667 11.3917 4.725 10.8333 5.41667 10.8333C6.10833 10.8333 6.66667 11.3917 6.66667 12.0833C6.66667 12.775 6.10833 13.3333 5.41667 13.3333ZM14.5833 13.3333C13.8917 13.3333 13.3333 12.775 13.3333 12.0833C13.3333 11.3917 13.8917 10.8333 14.5833 10.8333C15.275 10.8333 15.8333 11.3917 15.8333 12.0833C15.8333 12.775 15.275 13.3333 14.5833 13.3333ZM4.16667 9.16663L5.41667 5.41663H14.5833L15.8333 9.16663H4.16667Z" fill="#2C2C2C"/>
</g>
</g>
<defs>
<clipPath id="clip0_499_3258">
<rect width="20" height="20" fill="white"/>
</clipPath>
</defs>
</svg>
