<svg width="20" height="20" viewBox="0 0 20 20" fill="none" xmlns="http://www.w3.org/2000/svg">
<g clip-path="url(#clip0_499_3284)">
<mask id="mask0_499_3284" style="mask-type:luminance" maskUnits="userSpaceOnUse" x="0" y="0" width="20" height="20">
<path d="M20 0H0V20H20V0Z" fill="white"/>
</mask>
<g mask="url(#mask0_499_3284)">
<path d="M3.125 18.125L1.875 16.875L11.875 6.875L13.125 8.125L3.125 18.125Z" fill="#433B6B"/>
<path d="M11.25 7.50007L12.5 8.75007L13.5463 7.70801C13.8179 7.42995 13.8179 6.93351 13.5463 6.66132L13.3397 6.4542C13.0622 6.18202 12.5 6.25007 12.1875 6.56257L11.25 7.50007ZM1.46094 18.2824L1.71719 18.5394C1.99219 18.8214 2.44844 18.8214 2.72344 18.5331L3.75 17.5036L2.5 16.2501L1.46094 17.2671C1.17969 17.5491 1.17969 18.0004 1.46094 18.2824Z" fill="#F4F4F4"/>
<path d="M17.4193 2.76465C17.5009 2.94158 17.639 3.08191 17.821 3.16123L18.5805 3.4907C18.8065 3.59442 18.8065 3.90558 18.5805 4.0093L17.8273 4.33877C17.6453 4.41809 17.5009 4.55842 17.4256 4.73536L16.8292 6.08985C16.7226 6.30338 16.4024 6.30338 16.2958 6.08985L15.6994 4.73536C15.6178 4.55842 15.4797 4.41809 15.2977 4.33877L14.5445 4.0093C14.3185 3.90558 14.3185 3.59442 14.5445 3.4907L15.2977 3.16123C15.4797 3.08191 15.6241 2.94158 15.6994 2.76465L16.2958 1.41016C16.4024 1.19661 16.7226 1.19661 16.8292 1.41016L17.4193 2.76465ZM10.2758 3.50166C10.1457 3.44691 10.0481 3.34956 9.98963 3.22788L9.56688 2.29701C9.48881 2.151 9.26119 2.151 9.18312 2.29701L8.76044 3.22788C8.70837 3.34956 8.60431 3.44691 8.47425 3.50166L7.93444 3.72677C7.77187 3.79978 7.77187 4.01273 7.93444 4.08573L8.47425 4.31085C8.60431 4.3656 8.70187 4.46295 8.76044 4.58463L9.18312 5.51549C9.26119 5.66151 9.48881 5.66151 9.56688 5.51549L9.98963 4.58463C10.0416 4.46295 10.1457 4.3656 10.2758 4.31085L10.8156 4.08573C10.9781 4.01273 10.9781 3.79978 10.8156 3.72677L10.2758 3.50166ZM16.2192 10.186C16.0921 10.1248 15.9917 10.0227 15.9315 9.88656L15.5032 8.8725C15.4229 8.70919 15.1954 8.70919 15.1218 8.8725L14.6935 9.88656C14.64 10.0159 14.5329 10.1248 14.4058 10.186L13.8704 10.4311C13.7099 10.5127 13.7099 10.7441 13.8704 10.8189L14.4058 11.064C14.5329 11.1253 14.6333 11.2273 14.6935 11.3634L15.1218 12.3775C15.2021 12.5408 15.4296 12.5408 15.5032 12.3775L15.9315 11.3634C15.985 11.2341 16.0921 11.1253 16.2192 11.064L16.7546 10.8189C16.9151 10.7373 16.9151 10.5059 16.7546 10.4311L16.2192 10.186ZM7.5 8.75C7.84519 8.75 8.125 8.47019 8.125 8.125C8.125 7.77981 7.84519 7.5 7.5 7.5C7.15481 7.5 6.875 7.77981 6.875 8.125C6.875 8.47019 7.15481 8.75 7.5 8.75ZM18.75 8.125C18.75 8.47019 18.4702 8.75 18.125 8.75C17.7798 8.75 17.5 8.47019 17.5 8.125C17.5 7.77981 17.7798 7.5 18.125 7.5C18.4702 7.5 18.75 7.77981 18.75 8.125ZM11.875 2.5C12.2202 2.5 12.5 2.22018 12.5 1.875C12.5 1.52982 12.2202 1.25 11.875 1.25C11.5298 1.25 11.25 1.52982 11.25 1.875C11.25 2.22018 11.5298 2.5 11.875 2.5ZM12.5 13.125C12.5 13.4702 12.2202 13.75 11.875 13.75C11.5298 13.75 11.25 13.4702 11.25 13.125C11.25 12.7798 11.5298 12.5 11.875 12.5C12.2202 12.5 12.5 12.7798 12.5 13.125Z" fill="#F9C23C"/>
</g>
</g>
<defs>
<clipPath id="clip0_499_3284">
<rect width="20" height="20" fill="white"/>
</clipPath>
</defs>
</svg>
