<svg width="28" height="28" viewBox="0 0 28 28" fill="none" xmlns="http://www.w3.org/2000/svg">
<path fill-rule="evenodd" clip-rule="evenodd" d="M18.4963 19.7338C17.0058 20.9507 15.102 21.6806 13.0278 21.6806C8.24898 21.6806 4.375 17.8066 4.375 13.0278C4.375 8.24898 8.24898 4.375 13.0278 4.375C17.8066 4.375 21.6806 8.24898 21.6806 13.0278C21.6806 15.102 20.9507 17.0058 19.7338 18.4963L23.3687 22.1313C23.7104 22.473 23.7104 23.027 23.3687 23.3687C23.027 23.7104 22.473 23.7104 22.1313 23.3687L18.4963 19.7338ZM6.125 13.0278C6.125 9.21548 9.21548 6.125 13.0278 6.125C16.8401 6.125 19.9306 9.21548 19.9306 13.0278C19.9306 14.8902 19.1929 16.5804 17.9939 17.8221C17.9619 17.8463 17.9313 17.873 17.9021 17.9021C17.873 17.9313 17.8463 17.9619 17.8221 17.9939C16.5804 19.1929 14.8902 19.9306 13.0278 19.9306C9.21548 19.9306 6.125 16.8401 6.125 13.0278Z" fill="#2C2C2C"/>
</svg>
