<svg width="20" height="20" viewBox="0 0 20 20" fill="none" xmlns="http://www.w3.org/2000/svg">
<g clip-path="url(#clip0_499_3320)">
<mask id="mask0_499_3320" style="mask-type:luminance" maskUnits="userSpaceOnUse" x="0" y="0" width="20" height="20">
<path d="M20 0H0V20H20V0Z" fill="white"/>
</mask>
<g mask="url(#mask0_499_3320)">
<path fill-rule="evenodd" clip-rule="evenodd" d="M8.74659 7.01286C8.55312 6.90284 8.31574 6.904 8.12336 7.01591C7.93098 7.12782 7.81262 7.33359 7.81262 7.55615V12.0978C7.81262 12.3204 7.93098 12.5262 8.12336 12.6381C8.31574 12.75 8.55312 12.7511 8.74659 12.6411L12.7396 10.3703C12.935 10.2592 13.0557 10.0517 13.0557 9.82699C13.0557 9.60224 12.935 9.3948 12.7396 9.2837L8.74659 7.01286ZM11.1664 9.82699L9.06262 11.0234V8.63059L11.1664 9.82699Z" fill="#2C2C2C"/>
<path fill-rule="evenodd" clip-rule="evenodd" d="M10 3.81921L9.98571 3.81922C9.97641 3.81923 9.96268 3.81925 9.9448 3.81929C9.90903 3.81937 9.8566 3.81953 9.78957 3.81984C9.65551 3.82047 9.46295 3.82173 9.22825 3.82424C8.7591 3.82926 8.12038 3.8393 7.44337 3.85942C6.76735 3.87951 6.04813 3.90978 5.4195 3.95563C4.80835 4.00021 4.22982 4.06269 3.86643 4.15988C3.86353 4.16065 3.86064 4.16145 3.85776 4.16226C3.42501 4.2847 3.03224 4.51916 2.71911 4.84197C2.40598 5.16479 2.18358 5.56452 2.07438 6.00079C2.071 6.0143 2.06807 6.02792 2.0656 6.04163C1.84042 7.29029 1.73017 8.55696 1.73623 9.82574C1.72842 11.1041 1.83868 12.3804 2.06561 13.6385C2.06927 13.6588 2.07393 13.6789 2.07958 13.6987C2.19997 14.1214 2.42735 14.506 2.73975 14.8151C3.05215 15.1243 3.43901 15.3477 3.86296 15.4637L3.86643 15.4646C4.22982 15.5618 4.80835 15.6243 5.4195 15.6689C6.04813 15.7147 6.76735 15.745 7.44337 15.7651C8.12038 15.7852 8.7591 15.7952 9.22825 15.8003C9.46295 15.8028 9.65551 15.804 9.78957 15.8047C9.8566 15.805 9.90903 15.8051 9.9448 15.8052C9.96268 15.8053 9.97641 15.8053 9.98571 15.8053H10H10.0145C10.022 15.8053 10.0323 15.8053 10.0453 15.8052H10.0555C10.0912 15.8051 10.1437 15.805 10.2107 15.8047C10.3447 15.804 10.5373 15.8028 10.772 15.8003C11.2412 15.7952 11.8799 15.7852 12.5569 15.7651C13.2329 15.745 13.9521 15.7147 14.5807 15.6689C15.1919 15.6243 15.7704 15.5618 16.1338 15.4646C16.1367 15.4639 16.1396 15.4631 16.1425 15.4622C16.5752 15.3398 16.968 15.1053 17.2811 14.7825C17.5943 14.4597 17.8167 14.06 17.9259 13.6237C17.9293 13.6102 17.9322 13.5966 17.9347 13.5829C18.1581 12.3435 18.2684 11.0863 18.264 9.82693C18.2719 8.54847 18.1616 7.27201 17.9346 6.01382C17.9322 6.00013 17.9292 5.98652 17.9259 5.97301C17.8167 5.53674 17.5943 5.13701 17.2811 4.8142C16.968 4.49138 16.5752 4.25692 16.1425 4.13449C16.1352 4.13243 16.1279 4.13051 16.1206 4.12872C15.7622 4.04119 15.1882 3.98436 14.5768 3.94364C13.9493 3.90185 13.2309 3.87423 12.5553 3.8559C11.8787 3.83755 11.2403 3.82838 10.7714 3.8238C10.5368 3.82151 10.3444 3.82036 10.2104 3.81979C10.1434 3.8195 10.0911 3.81936 10.0553 3.81929C10.0375 3.81925 10.0238 3.81923 10.0145 3.81922L10 3.81921ZM3.61635 5.7123C3.77528 5.54845 3.97437 5.42916 4.19374 5.36628C4.42898 5.30419 4.89365 5.24731 5.51044 5.20232C6.11358 5.15833 6.81276 5.12871 7.4805 5.10887C8.14723 5.08906 8.77761 5.07913 9.24162 5.07417C9.4735 5.07169 9.66354 5.07045 9.79543 5.06983C9.86137 5.06952 9.91276 5.06937 9.94756 5.06929C9.95717 5.06927 9.96551 5.06925 9.97255 5.06924C9.97825 5.06923 9.98309 5.06923 9.98706 5.06922L10.0001 5.06921L10.0528 5.06928C10.0877 5.06935 10.1391 5.06949 10.2051 5.06978C10.3371 5.07034 10.5272 5.07147 10.7592 5.07374C11.2234 5.07828 11.8542 5.08734 12.5214 5.10544C13.1895 5.12357 13.8895 5.15064 14.4938 5.19088C15.1047 5.23156 15.5708 5.28313 15.8129 5.34036C16.0298 5.40372 16.2265 5.52228 16.3839 5.68452C16.5395 5.84488 16.6512 6.0424 16.7085 6.25811C16.9193 7.43428 17.0215 8.62733 17.014 9.82223V9.82467V9.8284C17.0183 11.0053 16.916 12.1802 16.7085 13.3386C16.6512 13.5543 16.5395 13.7519 16.3839 13.9122C16.225 14.0761 16.0259 14.1954 15.8065 14.2582C15.5713 14.3203 15.1066 14.3772 14.4898 14.4222C13.8867 14.4662 13.1875 14.4958 12.5198 14.5156C11.853 14.5355 11.2226 14.5454 10.7586 14.5503C10.5268 14.5528 10.3367 14.5541 10.2048 14.5547C10.1389 14.555 10.0875 14.5551 10.0527 14.5552C10.0353 14.5553 10.022 14.5553 10.0132 14.5553H10.0008C10.0008 14.5553 10.0001 14.5553 10.0001 14.7492V14.7246C10.0001 14.5553 10.0009 14.5553 10.0008 14.5553H9.99942L9.94756 14.5552C9.91276 14.5551 9.86137 14.555 9.79543 14.5547C9.66354 14.5541 9.4735 14.5528 9.24162 14.5503C8.77761 14.5454 8.14723 14.5355 7.4805 14.5156C6.81276 14.4958 6.11358 14.4662 5.51044 14.4222C4.89132 14.377 4.42546 14.3199 4.19108 14.2575C3.97519 14.1981 3.7782 14.0842 3.61904 13.9267C3.46613 13.7753 3.35309 13.5887 3.28979 13.3834C3.08036 12.2107 2.97874 11.0213 2.98622 9.83008C2.98624 9.82775 2.98624 9.82541 2.98623 9.82307C2.98037 8.63716 3.08263 7.45319 3.29173 6.28588C3.34907 6.07017 3.4608 5.87266 3.61635 5.7123Z" fill="#2C2C2C"/>
</g>
</g>
<defs>
<clipPath id="clip0_499_3320">
<rect width="20" height="20" fill="white"/>
</clipPath>
</defs>
</svg>
