<svg width="20" height="20" viewBox="0 0 20 20" fill="none" xmlns="http://www.w3.org/2000/svg">
<g clip-path="url(#clip0_499_3314)">
<mask id="mask0_499_3314" style="mask-type:luminance" maskUnits="userSpaceOnUse" x="0" y="0" width="20" height="20">
<path d="M20 0H0V20H20V0Z" fill="white"/>
</mask>
<g mask="url(#mask0_499_3314)">
<path fill-rule="evenodd" clip-rule="evenodd" d="M6.9699 2.61384C6.72582 2.36977 6.33009 2.36977 6.08601 2.61384C5.84193 2.85792 5.84193 3.25365 6.08601 3.49773L8.49075 5.90247H4.44455C3.33231 5.90247 2.43066 6.80412 2.43066 7.91636V15.5553C2.43066 16.6675 3.33231 17.5692 4.44455 17.5692H15.5557C16.6679 17.5692 17.5696 16.6675 17.5696 15.5553V7.91636C17.5696 6.80412 16.6679 5.90247 15.5557 5.90247H11.5096L13.9143 3.49773C14.1584 3.25365 14.1584 2.85792 13.9143 2.61384C13.6703 2.36977 13.2745 2.36977 13.0305 2.61384L10.0002 5.64413L6.9699 2.61384ZM9.97406 7.15247C9.99146 7.15319 10.0089 7.15319 10.0263 7.15247H15.5557C15.9775 7.15247 16.3196 7.49447 16.3196 7.91636V15.5553C16.3196 15.9772 15.9775 16.3192 15.5557 16.3192H4.44455C4.02267 16.3192 3.68066 15.9772 3.68066 15.5553V7.91636C3.68066 7.49447 4.02267 7.15247 4.44455 7.15247H9.97406Z" fill="#2C2C2C"/>
</g>
</g>
<defs>
<clipPath id="clip0_499_3314">
<rect width="20" height="20" fill="white"/>
</clipPath>
</defs>
</svg>
