<svg width="24" height="24" viewBox="0 0 24 24" fill="none" xmlns="http://www.w3.org/2000/svg">
<path fill-rule="evenodd" clip-rule="evenodd" d="M14.2997 3.00622C15.4496 2.7967 16.6361 2.94261 17.701 3.42449C17.9253 3.526 18.0855 3.73113 18.1296 3.97335C18.1738 4.21557 18.0962 4.46402 17.9221 4.63812L14.7845 7.77576C14.77 7.79119 14.7619 7.81158 14.7619 7.83279C14.7619 7.854 14.77 7.87439 14.7845 7.88982L16.1097 9.21508C16.1252 9.22958 16.1456 9.23767 16.1668 9.23767C16.188 9.23767 16.2084 9.22958 16.2238 9.2151L19.3615 6.07746C19.5356 5.90336 19.784 5.8258 20.0262 5.86994C20.2684 5.91407 20.4736 6.07427 20.5751 6.29858C21.057 7.36347 21.2029 8.54993 20.9934 9.69985C20.7838 10.8498 20.2289 11.9085 19.4024 12.735C18.5759 13.5615 17.5171 14.1165 16.3672 14.326C15.3912 14.5038 14.3889 14.4256 13.4569 14.1033L8.04712 19.5131C7.57495 19.9853 6.93454 20.2506 6.26679 20.2506C5.59904 20.2506 4.95863 19.9853 4.48646 19.5131C4.01429 19.0409 3.74902 18.4005 3.74902 17.7328C3.74902 17.065 4.01429 16.4246 4.48646 15.9525L9.89629 10.5426C9.57394 9.61068 9.49573 8.60837 9.67356 7.63239C9.88307 6.48248 10.4381 5.42373 11.2646 4.59723C12.0911 3.77073 13.1498 3.21574 14.2997 3.00622ZM15.9764 4.46248C15.512 4.39104 15.0362 4.39673 14.5686 4.48193C13.7187 4.63679 12.9361 5.047 12.3252 5.65789C11.7143 6.26878 11.3041 7.05133 11.1493 7.90127C10.9944 8.75121 11.1022 9.62816 11.4584 10.4153C11.5871 10.6997 11.5262 11.034 11.3055 11.2548L5.54712 17.0131C5.35625 17.204 5.24902 17.4629 5.24902 17.7328C5.24902 18.0027 5.35625 18.2616 5.54712 18.4525C5.73799 18.6433 5.99686 18.7506 6.26679 18.7506C6.53672 18.7506 6.79559 18.6433 6.98646 18.4525L12.7448 12.6941C12.9655 12.4734 13.2999 12.4125 13.5843 12.5412C14.3714 12.8973 15.2484 13.0052 16.0983 12.8503C16.9482 12.6955 17.7308 12.2852 18.3417 11.6744C18.9526 11.0635 19.3628 10.2809 19.5177 9.43097C19.6028 8.96338 19.6085 8.48762 19.5371 8.02314L17.2805 10.2798C17.2787 10.2816 17.2769 10.2833 17.2751 10.2851C16.9792 10.5752 16.5812 10.7377 16.1668 10.7377C15.7524 10.7377 15.3544 10.5752 15.0585 10.2851C15.0567 10.2833 15.0549 10.2816 15.0531 10.2798L13.7198 8.94645C13.718 8.94468 13.7163 8.94291 13.7145 8.94112C13.4244 8.64515 13.2619 8.24723 13.2619 7.83279C13.2619 7.41834 13.4244 7.02042 13.7145 6.72445C13.7163 6.72267 13.718 6.72089 13.7198 6.71912L15.9764 4.46248Z" fill="#383838"/>
</svg>
