<svg width="24" height="24" viewBox="0 0 24 24" fill="none" xmlns="http://www.w3.org/2000/svg">
<path d="M20.3332 10.0584C20.2806 9.90591 20.1849 9.77202 20.0577 9.67292C19.9305 9.57382 19.7772 9.51375 19.6166 9.5L14.8749 8.80834L12.7499 4.5C12.6817 4.35911 12.5751 4.24029 12.4425 4.15715C12.3098 4.07401 12.1564 4.02991 11.9999 4.02991C11.8434 4.02991 11.69 4.07401 11.5573 4.15715C11.4247 4.24029 11.3181 4.35911 11.2499 4.5L9.1249 8.8L4.38323 9.5C4.229 9.52192 4.084 9.58664 3.96469 9.6868C3.84538 9.78696 3.75653 9.91856 3.70823 10.0667C3.66402 10.2114 3.66005 10.3655 3.69676 10.5123C3.73346 10.6591 3.80945 10.7931 3.91657 10.9L7.35823 14.2334L6.5249 18.9667C6.49515 19.1229 6.51073 19.2844 6.56979 19.4321C6.62886 19.5797 6.72894 19.7074 6.85823 19.8C6.98425 19.8901 7.13288 19.9433 7.28744 19.9536C7.442 19.9639 7.59638 19.9309 7.73323 19.8584L11.9999 17.6334L16.2499 19.8667C16.3669 19.9327 16.4989 19.9671 16.6332 19.9667C16.8098 19.9673 16.9819 19.9119 17.1249 19.8084C17.2542 19.7157 17.3543 19.5881 17.4133 19.4404C17.4724 19.2927 17.488 19.1313 17.4582 18.975L16.6249 14.2417L20.0666 10.9084C20.1869 10.8064 20.2758 10.6724 20.323 10.522C20.3702 10.3715 20.3738 10.2108 20.3332 10.0584ZM15.2082 13.3917C15.1105 13.4862 15.0374 13.6032 14.9953 13.7325C14.9531 13.8618 14.9433 13.9994 14.9666 14.1334L15.5666 17.625L12.4332 15.9584C12.3127 15.8942 12.1782 15.8606 12.0416 15.8606C11.905 15.8606 11.7705 15.8942 11.6499 15.9584L8.51657 17.625L9.11657 14.1334C9.13985 13.9994 9.12999 13.8618 9.08787 13.7325C9.04575 13.6032 8.97263 13.4862 8.8749 13.3917L6.3749 10.8917L9.88323 10.3834C10.0182 10.3646 10.1466 10.313 10.257 10.2331C10.3674 10.1532 10.4565 10.0474 10.5166 9.925L11.9999 6.75L13.5666 9.93334C13.6266 10.0557 13.7157 10.1615 13.8262 10.2414C13.9366 10.3213 14.0649 10.3729 14.1999 10.3917L17.7082 10.9L15.2082 13.3917Z" fill="#2C2C2C"/>
</svg>
