<svg width="28" height="28" viewBox="0 0 28 28" fill="none" xmlns="http://www.w3.org/2000/svg">
<path d="M14.3246 3.4654C14.4317 3.5081 14.532 3.5728 14.6187 3.65948L18.5076 7.54837C18.8493 7.89008 18.8493 8.4441 18.5076 8.78581C18.1659 9.12751 17.6119 9.12751 17.2702 8.78581L14.875 6.39061V16.9171C14.875 17.4003 14.4832 17.7921 14 17.7921C13.5167 17.7921 13.125 17.4003 13.125 16.9171V6.39066L10.7298 8.78581C10.3881 9.12751 9.83407 9.12751 9.49237 8.78581C9.15066 8.4441 9.15066 7.89008 9.49237 7.54837L13.3774 3.66331C13.3902 3.65044 13.4033 3.63797 13.4167 3.62592C13.5715 3.48741 13.7759 3.4032 14 3.4032" fill="#2C2C2C"/>
<path d="M14.0034 3.4032C14.1168 3.40364 14.2252 3.42567 14.3246 3.4654L14.0034 3.4032Z" fill="#2C2C2C"/>
<path d="M6.22217 13.125C6.70542 13.125 7.09717 13.5168 7.09717 14V21.7778C7.09717 22.0615 7.20984 22.3335 7.4104 22.534C7.61096 22.7346 7.88298 22.8473 8.16661 22.8473H19.8333C20.1169 22.8473 20.3889 22.7346 20.5895 22.534C20.79 22.3335 20.9027 22.0615 20.9027 21.7778V14C20.9027 13.5168 21.2945 13.125 21.7777 13.125C22.261 13.125 22.6527 13.5168 22.6527 14V21.7778C22.6527 22.5256 22.3557 23.2427 21.8269 23.7715C21.2982 24.3002 20.581 24.5973 19.8333 24.5973H8.16661C7.41885 24.5973 6.70171 24.3002 6.17296 23.7715C5.64422 23.2427 5.34717 22.5256 5.34717 21.7778V14C5.34717 13.5168 5.73892 13.125 6.22217 13.125Z" fill="#2C2C2C"/>
</svg>
