<svg width="60" height="56" viewBox="0 0 60 56" fill="none" xmlns="http://www.w3.org/2000/svg">
<g filter="url(#filter1_di_1054_1289)">
<path d="M47.3693 18.773C47.4856 18.1129 47.5462 17.4337 47.5462 16.7406C47.5462 10.2561 42.2405 4.99945 35.6956 4.99945C30.83 4.99945 26.6493 7.90465 24.8242 12.0597C23.3457 10.795 21.4271 10.0314 19.3305 10.0314C14.6556 10.0314 10.8658 13.8279 10.8658 18.5111C10.8658 18.7719 10.8775 19.0299 10.9005 19.2847C8.65198 20.3759 7.10369 22.6655 7.10369 25.3135C7.10369 29.0189 10.1355 32.0227 13.8755 32.0227H45.8532C49.5932 32.0227 52.625 29.0189 52.625 25.3135C52.625 22.1245 50.3793 19.4551 47.3693 18.773Z" fill="url(#paint0_linear_1054_1289)" shape-rendering="crispEdges"/>
</g>
<g filter="url(#filter2_i_1054_1289)">
<path d="M33.8909 32.0364H26.6386L23.4855 40.5152H29.1611L26.5335 51.1003L36.0981 37.2135H31.8939L33.8909 32.0364Z" fill="url(#paint1_linear_1054_1289)"/>
</g>
<g filter="url(#filter3_f_1054_1289)">
<rect x="11.1628" y="27.1802" width="37.2579" height="7.24862" rx="3.62431" fill="#FFED8D"/>
</g>
<g filter="url(#filter4_di_1054_1289)">
<path d="M38.8743 47.4146C37.7484 47.9145 37.309 48.337 36.9062 49.3826C36.5855 48.3693 36.191 47.9173 34.9382 47.4146C36.227 46.9946 36.5768 46.5085 36.9062 45.4465C37.311 46.4253 37.5611 46.9595 38.8743 47.4146Z" fill="url(#paint2_linear_1054_1289)"/>
</g>
<g filter="url(#filter5_i_1054_1289)">
<path d="M20.6078 36.3971C19.4819 36.8971 19.0425 37.3196 18.6397 38.3651C18.319 37.3519 17.9246 36.8999 16.6717 36.3971C17.9605 35.9772 18.3103 35.4911 18.6397 34.429C19.0446 35.4079 19.2946 35.9421 20.6078 36.3971Z" fill="url(#paint3_linear_1054_1289)"/>
</g>
<defs>
<filter id="filter1_di_1054_1289" x="1.60364" y="1.69945" width="56.5214" height="38.0233" filterUnits="userSpaceOnUse" color-interpolation-filters="sRGB">
<feFlood flood-opacity="0" result="BackgroundImageFix"/>
<feColorMatrix in="SourceAlpha" type="matrix" values="0 0 0 0 0 0 0 0 0 0 0 0 0 0 0 0 0 0 127 0" result="hardAlpha"/>
<feOffset dy="2.2"/>
<feGaussianBlur stdDeviation="2.75"/>
<feComposite in2="hardAlpha" operator="out"/>
<feColorMatrix type="matrix" values="0 0 0 0 0.708133 0 0 0 0 0.708133 0 0 0 0 0.708133 0 0 0 0.25 0"/>
<feBlend mode="normal" in2="BackgroundImageFix" result="effect1_dropShadow_1054_1289"/>
<feBlend mode="normal" in="SourceGraphic" in2="effect1_dropShadow_1054_1289" result="shape"/>
<feColorMatrix in="SourceAlpha" type="matrix" values="0 0 0 0 0 0 0 0 0 0 0 0 0 0 0 0 0 0 127 0" result="hardAlpha"/>
<feOffset dy="1.7"/>
<feGaussianBlur stdDeviation="0.75"/>
<feComposite in2="hardAlpha" operator="arithmetic" k2="-1" k3="1"/>
<feColorMatrix type="matrix" values="0 0 0 0 0.797884 0 0 0 0 0.797884 0 0 0 0 0.797884 0 0 0 1 0"/>
<feBlend mode="normal" in2="shape" result="effect2_innerShadow_1054_1289"/>
</filter>
<filter id="filter2_i_1054_1289" x="23.1955" y="32.0364" width="12.9025" height="19.0638" filterUnits="userSpaceOnUse" color-interpolation-filters="sRGB">
<feFlood flood-opacity="0" result="BackgroundImageFix"/>
<feBlend mode="normal" in="SourceGraphic" in2="BackgroundImageFix" result="shape"/>
<feColorMatrix in="SourceAlpha" type="matrix" values="0 0 0 0 0 0 0 0 0 0 0 0 0 0 0 0 0 0 127 0" result="hardAlpha"/>
<feOffset dx="-0.289945"/>
<feGaussianBlur stdDeviation="0.652375"/>
<feComposite in2="hardAlpha" operator="arithmetic" k2="-1" k3="1"/>
<feColorMatrix type="matrix" values="0 0 0 0 1 0 0 0 0 1 0 0 0 0 1 0 0 0 0.5 0"/>
<feBlend mode="normal" in2="shape" result="effect1_innerShadow_1054_1289"/>
</filter>
<filter id="filter3_f_1054_1289" x="-2.67029e-05" y="16.0173" width="59.5837" height="29.5743" filterUnits="userSpaceOnUse" color-interpolation-filters="sRGB">
<feFlood flood-opacity="0" result="BackgroundImageFix"/>
<feBlend mode="normal" in="SourceGraphic" in2="BackgroundImageFix" result="shape"/>
<feGaussianBlur stdDeviation="5.58143" result="effect1_foregroundBlur_1054_1289"/>
</filter>
<filter id="filter4_di_1054_1289" x="33.6672" y="45.4465" width="6.47811" height="6.80177" filterUnits="userSpaceOnUse" color-interpolation-filters="sRGB">
<feFlood flood-opacity="0" result="BackgroundImageFix"/>
<feColorMatrix in="SourceAlpha" type="matrix" values="0 0 0 0 0 0 0 0 0 0 0 0 0 0 0 0 0 0 127 0" result="hardAlpha"/>
<feOffset dy="1.5947"/>
<feGaussianBlur stdDeviation="0.635519"/>
<feColorMatrix type="matrix" values="0 0 0 0 0.285052 0 0 0 0 0.179688 0 0 0 0 0.9375 0 0 0 1 0"/>
<feBlend mode="normal" in2="BackgroundImageFix" result="effect1_dropShadow_1054_1289"/>
<feBlend mode="normal" in="SourceGraphic" in2="effect1_dropShadow_1054_1289" result="shape"/>
<feColorMatrix in="SourceAlpha" type="matrix" values="0 0 0 0 0 0 0 0 0 0 0 0 0 0 0 0 0 0 127 0" result="hardAlpha"/>
<feOffset dy="0.579889"/>
<feGaussianBlur stdDeviation="0.289945"/>
<feComposite in2="hardAlpha" operator="arithmetic" k2="-1" k3="1"/>
<feColorMatrix type="matrix" values="0 0 0 0 1 0 0 0 0 1 0 0 0 0 1 0 0 0 0.44 0"/>
<feBlend mode="normal" in2="shape" result="effect2_innerShadow_1054_1289"/>
</filter>
<filter id="filter5_i_1054_1289" x="16.6718" y="34.4291" width="3.93604" height="4.51592" filterUnits="userSpaceOnUse" color-interpolation-filters="sRGB">
<feFlood flood-opacity="0" result="BackgroundImageFix"/>
<feBlend mode="normal" in="SourceGraphic" in2="BackgroundImageFix" result="shape"/>
<feColorMatrix in="SourceAlpha" type="matrix" values="0 0 0 0 0 0 0 0 0 0 0 0 0 0 0 0 0 0 127 0" result="hardAlpha"/>
<feOffset dy="0.579889"/>
<feGaussianBlur stdDeviation="0.289945"/>
<feComposite in2="hardAlpha" operator="arithmetic" k2="-1" k3="1"/>
<feColorMatrix type="matrix" values="0 0 0 0 1 0 0 0 0 1 0 0 0 0 1 0 0 0 0.44 0"/>
<feBlend mode="normal" in2="shape" result="effect1_innerShadow_1054_1289"/>
</filter>
<linearGradient id="paint0_linear_1054_1289" x1="9.99904" y1="29.6099" x2="55.9225" y2="-4.73214" gradientUnits="userSpaceOnUse">
<stop stop-color="#959595"/>
<stop offset="1" stop-color="#959595" stop-opacity="0.58"/>
</linearGradient>
<linearGradient id="paint1_linear_1054_1289" x1="28.2329" y1="49.264" x2="40.5365" y2="32.2798" gradientUnits="userSpaceOnUse">
<stop stop-color="#FF9900"/>
<stop offset="1" stop-color="#FFEE94"/>
</linearGradient>
<linearGradient id="paint2_linear_1054_1289" x1="36.3369" y1="49.567" x2="38.1892" y2="46.0892" gradientUnits="userSpaceOnUse">
<stop stop-color="#FF9900"/>
<stop offset="1" stop-color="#FFEE94"/>
</linearGradient>
<linearGradient id="paint3_linear_1054_1289" x1="18.0704" y1="38.5496" x2="19.9227" y2="35.0717" gradientUnits="userSpaceOnUse">
<stop stop-color="#FF9900"/>
<stop offset="1" stop-color="#FFEE94"/>
</linearGradient>
</defs>
</svg>
