<svg width="24" height="24" viewBox="0 0 24 24" fill="none" xmlns="http://www.w3.org/2000/svg">
<path d="M5.33325 3.75C5.74747 3.75 6.08325 4.08579 6.08325 4.5V10.3333C6.08325 10.7475 5.74747 11.0833 5.33325 11.0833C4.91904 11.0833 4.58325 10.7475 4.58325 10.3333V4.5C4.58325 4.08579 4.91904 3.75 5.33325 3.75Z" fill="#2C2C2C"/>
<path d="M6.08325 14.417H7.83325C8.24747 14.417 8.58325 14.0812 8.58325 13.667C8.58325 13.2528 8.24747 12.917 7.83325 12.917H2.83325C2.41904 12.917 2.08325 13.2528 2.08325 13.667C2.08325 14.0812 2.41904 14.417 2.83325 14.417H4.58325V19.5003C4.58325 19.9145 4.91904 20.2503 5.33325 20.2503C5.74747 20.2503 6.08325 19.9145 6.08325 19.5003V14.417Z" fill="#2C2C2C"/>
<path d="M12.7499 12C12.7499 11.5858 12.4142 11.25 11.9999 11.25C11.5857 11.25 11.2499 11.5858 11.2499 12V19.5C11.2499 19.9142 11.5857 20.25 11.9999 20.25C12.4142 20.25 12.7499 19.9142 12.7499 19.5V12Z" fill="#2C2C2C"/>
<path d="M12 3.75C12.4143 3.75 12.75 4.08579 12.75 4.5V7.91699H14.5C14.9143 7.91699 15.25 8.25278 15.25 8.66699C15.25 9.08121 14.9143 9.41699 14.5 9.41699H9.5C9.08579 9.41699 8.75 9.08121 8.75 8.66699C8.75 8.25278 9.08579 7.91699 9.5 7.91699H11.25V4.5C11.25 4.08579 11.5858 3.75 12 3.75Z" fill="#2C2C2C"/>
<path d="M21.1666 14.583C21.5808 14.583 21.9166 14.9188 21.9166 15.333C21.9166 15.7472 21.5808 16.083 21.1666 16.083H19.4166V19.4997C19.4166 19.9139 19.0808 20.2497 18.6666 20.2497C18.2524 20.2497 17.9166 19.9139 17.9166 19.4997V16.083H16.1666C15.7524 16.083 15.4166 15.7472 15.4166 15.333C15.4166 14.9188 15.7524 14.583 16.1666 14.583H21.1666Z" fill="#2C2C2C"/>
<path d="M18.6666 3.75C19.0808 3.75 19.4166 4.08579 19.4166 4.5V12C19.4166 12.4142 19.0808 12.75 18.6666 12.75C18.2524 12.75 17.9166 12.4142 17.9166 12V4.5C17.9166 4.08579 18.2524 3.75 18.6666 3.75Z" fill="#2C2C2C"/>
</svg>
